<svg width="129" height="138" viewBox="0 0 129 138" fill="none" xmlns="http://www.w3.org/2000/svg">
    <path d="M113.264 99.6218L128.103 91.064V50.064L113.264 58.6218L77.2533 79.3898L47.2533 96.7103L17.2533 79.3898L1 70.009V111.009L17.2533 120.39L47.2533 137.71L77.2533 120.39L113.264 99.6218Z" fill="#F6F6F6"/>
    <path d="M113.663 89.5629L65.1124 61.5642L65.1668 31.1619L80.005 22.6263L128.502 50.6263L128.502 81.0051L113.663 89.5629Z" fill="white"/>
    <path d="M113.663 89.5629L65.1124 61.5642L65.1668 31.1619M113.663 89.5629L113.715 59.1633M113.663 89.5629L128.502 81.0051L128.502 50.6263M113.715 59.1633L65.1668 31.1619M113.715 59.1633L128.502 50.6263M65.1668 31.1619L80.005 22.6263L128.502 50.6263" stroke="#272727"/>
    <path d="M77.6241 110.563L29.0735 82.5642L29.1278 22.1619L47.1329 11.7825L65.138 1.40318L113.635 29.4032L113.635 89.7946L77.6241 110.563Z" fill="white"/>
    <path d="M77.6241 110.563L29.0735 82.5642L29.1278 22.1619M77.6241 110.563L77.6758 50.1633M77.6241 110.563L113.635 89.7946L113.635 29.4032M77.6758 50.1633L29.1278 22.1619M77.6758 50.1633L95.6552 39.7832M29.1278 22.1619L47.1329 11.7825M113.635 29.4032L65.138 1.40318L47.1329 11.7825M113.635 29.4032L95.6552 39.7832M95.6552 39.7832L47.1329 11.7825" stroke="#272727"/>
    <path d="M23.5 60.8467L35.5 53.9185L47.5 46.9903L25 34L13 40.9282L1 47.8564L23.5 60.8467Z" fill="white"/>
    <path d="M23.7467 114L23.5 60.8467L1 47.8564L1.24673 101.01L23.7467 114Z" fill="white"/>
    <path d="M47.5 46.9903L35.5 53.9185L23.5 60.8467L23.7467 114L47.5 100.39V46.9903Z" fill="white"/>
    <path d="M23.5 60.8467L23.7467 114M23.5 60.8467L1 47.8564M23.5 60.8467L35.5 53.9185M47.5 46.9903V100.39L23.7467 114M47.5 46.9903L25 34L13 40.9282M47.5 46.9903L35.5 53.9185M23.7467 114L1.24673 101.01L1 47.8564M1 47.8564L13 40.9282M35.5 53.9185L13 40.9282" stroke="#272727"/>
    <path d="M47.5 58.6699L32.5 67.3302L17.5 75.9904L32.5 84.6507L47.5 93.3109L62.5 84.6507L77.5 75.9904L62.5 67.3302L47.5 58.6699Z" fill="white"/>
    <path d="M17.5 75.9904L17.5 110.39L47.5 127.711V93.3109L32.5 84.6507L17.5 75.9904Z" fill="white"/>
    <path d="M77.5 75.9904L62.5 84.6507L47.5 93.3109V127.711L77.5 110.39V75.9904Z" fill="white"/>
    <path d="M17.5 75.9904L17.5 110.39L47.5 127.711M17.5 75.9904L32.5 67.3302L47.5 58.6699L62.5 67.3302M17.5 75.9904L32.5 84.6507M47.5 93.3109V127.711M47.5 93.3109L62.5 84.6507L77.5 75.9904M47.5 93.3109L32.5 84.6507M77.5 75.9904V110.39L47.5 127.711M77.5 75.9904L62.5 67.3302M32.5 84.6507L62.5 67.3302" stroke="#272727"/>
    <path d="M0.5 57.5L17.5 87.5M0.5 76.5L17.5 106.5M3.90833 73.25L10 84M13 89L16.0458 94.375" stroke="#272727"/>
    <path d="M17.5 99.5L47 103.5L77.5 86.5" stroke="#272727"/>
    <path d="M18.25 105L25.625 106L33 107M48 108.5L57.5 103" stroke="#272727"/>
    <path d="M47 108.5L39.625 107.5M62.5735 100.32L77.5 92" stroke="#272727"/>
    <path d="M17.5 110.5L47 114.5L77.5 97.5" stroke="#272727"/>
    <path d="M77.5 58L77.6879 58.4634L77.7172 58.4515L77.7448 58.4359L77.5 58ZM77.5 68L77.6838 68.465L77.7153 68.4525L77.7448 68.4359L77.5 68ZM77.7448 58.4359L114.245 37.9359L113.755 37.0641L77.2552 57.5641L77.7448 58.4359ZM77.7448 68.4359L114.245 47.9359L113.755 47.0641L77.2552 67.5641L77.7448 68.4359ZM59.1879 65.9634L77.6879 58.4634L77.3121 57.5366L58.8121 65.0366L59.1879 65.9634ZM69.6838 71.6278L77.6838 68.465L77.3162 67.535L69.3162 70.6978L69.6838 71.6278ZM84.8668 59.4359L96.7448 52.7647L96.2552 51.8928L84.3771 58.5641L84.8668 59.4359ZM105.495 47.8503L109.87 45.3931L109.38 44.5212L105.005 46.9784L105.495 47.8503Z" fill="#272727"/>
    <path d="M114 76L128.5 62M114 84L128.5 70M121.25 73L124.875 69.5" stroke="#272727"/>
</svg>
