<svg width="127" height="117" viewBox="0 0 127 117" fill="none" xmlns="http://www.w3.org/2000/svg">
    <path d="M126.37 66.5418L126.37 34.7493L87.0338 12.0403L0.501087 62L0.503542 93.7926L39.839 116.502L126.37 66.5418Z" fill="#F6F6F6"/>
    <path d="M126.37 23.7493L87.0338 1.04029L0.502174 51L0.501087 51L24.1037 64.6254L39.8373 73.709L98.8366 39.6457L126.37 23.7493Z" fill="white"/>
    <path d="M45.7373 95.2824L120.47 52.1355L104.737 43.052L45.7373 77.1153L45.7373 95.2824Z" fill="white"/>
    <path d="M39.839 105.502L39.8373 73.709L24.1037 64.6254L0.501087 51L0.503542 82.7926L39.839 105.502Z" fill="white"/>
    <path fill-rule="evenodd" clip-rule="evenodd" d="M126.37 55.5418L126.37 23.7493L98.8366 39.6457L39.8373 73.709L39.839 105.502L126.37 55.5418ZM120.47 33.9683L120.47 52.1355L45.7373 95.2824L45.7373 77.1153L104.737 43.052L120.47 33.9683Z" fill="white"/>
    <path d="M120.47 52.1355L120.47 33.9683L104.737 43.052L120.47 52.1355Z" fill="white"/>
    <path d="M39.8373 73.709L39.839 105.502M39.8373 73.709L98.8366 39.6457L126.37 23.7493M39.8373 73.709L24.1037 64.6254L0.501087 51M126.37 23.7493L126.37 55.5418L39.839 105.502M126.37 23.7493L87.0338 1.04029M39.839 105.502L0.503542 82.7926L0.501087 51M120.47 52.1355L120.47 33.9683L104.737 43.052M120.47 52.1355L45.7373 95.2824L45.7373 77.1153L104.737 43.052M120.47 52.1355L104.737 43.052M0.501087 51L87.0338 1.04029M0.501087 51L0.5 51M0.501087 51L0.502174 51M87.0338 1.04029L0.5 51M87.0338 1.04029L0.502174 51M0.5 51L0.502174 51" stroke="#272727"/>
    <path fill-rule="evenodd" clip-rule="evenodd" d="M74.7425 42.1525C74.6603 42.2109 74.573 42.2614 74.481 42.3036L74.7425 42.1525Z" fill="white"/>
    <path d="M27.9871 33.2936L45.5833 43.4528C47.5155 44.5683 48.7233 42.8508 47.7578 40.3608L41.902 25.2598L41.5255 24.2887L40.103 25.1099L26.2698 33.0966C26.7162 32.8621 27.3211 32.909 27.9871 33.2936Z" fill="white"/>
    <path d="M45.5833 43.4528L27.9871 33.2936C27.3211 32.909 26.7162 32.8621 26.2698 33.0966C25.7955 33.3457 25.5 33.9125 25.5 34.7295C25.5 36.3155 26.6135 38.2442 27.9871 39.0372L52.6606 53.2825C53.6943 53.8793 54.5747 53.8765 55.1805 53.4467C56.1061 52.79 56.3907 51.1363 55.6014 49.101L47.2417 27.5426L45.5416 23.1584L45.2591 22.4299L45.1651 22.1874L43.2624 17.2807C42.5761 15.5108 41.055 14.162 39.8658 14.2688C38.6777 14.3755 38.2706 15.8949 38.9563 17.6632L41.5255 24.2887L41.902 25.2598L47.7578 40.3608C48.7233 42.8508 47.5155 44.5683 45.5833 43.4528Z" fill="white"/>
    <path d="M39.8658 14.2688C41.055 14.162 42.5761 15.5108 43.2624 17.2807L45.1651 22.1874L45.2591 22.4299L45.5416 23.1584L47.2417 27.5426L55.6014 49.101C56.3907 51.1363 56.1061 52.79 55.1805 53.4467L74.481 42.3036L74.7425 42.1525C75.6682 41.4958 75.9542 39.8421 75.1649 37.8067L62.8259 5.98652V5.98652C61.5302 2.64491 58.5007 3.51069 56.6672 4.56923L39.8658 14.2688Z" fill="white"/>
    <path d="M39.8658 14.2688C38.6777 14.3755 38.2706 15.8949 38.9563 17.6632L41.5255 24.2887M39.8658 14.2688C41.055 14.162 42.5761 15.5108 43.2624 17.2807L45.1651 22.1874L45.2591 22.4299L45.5416 23.1584L47.2417 27.5426L55.6014 49.101C56.3907 51.1363 56.1061 52.79 55.1805 53.4467M39.8658 14.2688L56.6672 4.56923C58.5007 3.51069 61.5302 2.64491 62.8259 5.98652V5.98652L75.1649 37.8067C75.9542 39.8421 75.6682 41.4958 74.7425 42.1525M74.7425 42.1525C74.6603 42.2109 74.573 42.2614 74.481 42.3036M74.7425 42.1525L74.481 42.3036M55.1805 53.4467C54.5747 53.8765 53.6943 53.8793 52.6606 53.2825L27.9871 39.0372C26.6135 38.2442 25.5 36.3155 25.5 34.7295C25.5 33.9125 25.7955 33.3457 26.2698 33.0966M55.1805 53.4467L74.481 42.3036M26.2698 33.0966C26.7162 32.8621 27.3211 32.909 27.9871 33.2936L45.5833 43.4528C47.5155 44.5683 48.7233 42.8508 47.7578 40.3608L41.902 25.2598L41.5255 24.2887M26.2698 33.0966L40.103 25.1099L41.5255 24.2887" stroke="#272727"/>
    <path d="M50.998 28.5924L62.067 22.7847M50.0784 25.0523L56.277 21.8M48.7844 21.4971L54.983 18.2449" stroke="#272727"/>
    <path d="M56.9339 44.0523L63.1325 40.8M55.6399 40.4971L61.8385 37.2449" stroke="#272727"/>
    <path d="M68.448 37.0553C69.7447 36.3066 70.3608 35.258 69.9561 34.0791C69.5513 32.9002 68.5381 32.7922 67.2414 33.5409L65.0689 34.7951L66.4105 38.7025L65.7791 39.067L66.026 39.7862L66.6574 39.4217L66.8509 39.9852L68.2019 39.2052L68.0084 38.6417L69.4545 37.8068L69.2075 37.0876L67.7615 37.9225L67.6266 37.5296L68.448 37.0553ZM68.6034 34.8778C68.7408 35.2782 68.5389 35.6613 68.0501 35.9435L67.2422 36.41L66.817 35.1718L67.6249 34.7053C68.1137 34.4231 68.4659 34.4774 68.6034 34.8778Z" fill="#272727"/>
</svg>
