<svg width="110" height="136" viewBox="0 0 110 136" fill="none" xmlns="http://www.w3.org/2000/svg">
    <path d="M55.0059 136L109.5 104.75L109.489 42.2511L55.0136 11L0.529223 42.2512L0.5 104.75L55.0059 136Z" fill="#F6F6F6"/>
    <path d="M42.3917 85.5193V27.0045L16.8798 41.6338V100.148L42.3917 85.5193Z" fill="white"/>
    <path d="M42.3917 27.0045V85.5193L67.9036 70.89V12.3752L42.3917 27.0045Z" fill="white"/>
    <path d="M106.03 92.7533L106.008 34.2458L67.9036 12.3752V70.89L106.03 92.7533Z" fill="white"/>
    <path d="M55.0059 122.007L106.03 92.7533L67.9036 70.89L42.3917 85.5193L16.8798 100.148L55.0059 122.007Z" fill="white"/>
    <path d="M4.00947 34.2466L3.98212 92.7533L11.8159 97.2447L16.8798 100.148V41.6338L4.00947 34.2466Z" fill="white"/>
    <path d="M55.0059 126L109.5 94.7499L109.489 32.2511L55.0136 1L0.529223 32.2512L4.00947 34.2466L55.0332 4.98797L67.9036 12.3752L106.008 34.2458L106.03 92.7533L55.0059 122.007V126Z" fill="white"/>
    <path d="M55.0332 4.98797L4.00947 34.2466L16.8798 41.6338L42.3917 27.0045L67.9036 12.3752L55.0332 4.98797Z" fill="white"/>
    <path d="M0.5 94.75L55.0059 126V122.007L16.8798 100.148L11.8159 97.2447L3.98212 92.7533L4.00947 34.2466L0.529223 32.2512L0.5 94.75Z" fill="white"/>
    <path d="M55.0059 126L109.5 94.7499L109.489 32.2511L55.0136 1L0.529223 32.2512M55.0059 126L0.5 94.75L0.529223 32.2512M55.0059 126V122.007M55.0059 122.007L106.03 92.7533M55.0059 122.007L16.8798 100.148M3.98212 92.7533L4.00947 34.2466M3.98212 92.7533L11.8159 97.2447L16.8798 100.148M3.98212 92.7533L16.8798 100.148M106.03 92.7533L106.008 34.2458M106.03 92.7533L67.9036 70.89M4.00947 34.2466L0.529223 32.2512M4.00947 34.2466L55.0332 4.98797L67.9036 12.3752M4.00947 34.2466L16.8798 41.6338M109.488 32.2504L106.008 34.2458M106.008 34.2458L67.9036 12.3752M67.9036 70.89V12.3752M67.9036 70.89L42.3917 85.5193M67.9036 12.3752L42.3917 27.0045M16.8798 41.6338L42.3917 27.0045M16.8798 41.6338V100.148M42.3917 27.0045V85.5193M42.3917 85.5193L16.8798 100.148" stroke="#272727"/>
    <path d="M79.4459 68.5374L101.45 81.2417L101.45 70.3647C101.45 68.7079 100.287 66.6931 98.8524 65.8647L82.044 56.1604C80.6091 55.332 79.4459 56.0035 79.4459 57.6604L79.4459 68.5374Z" fill="white"/>
    <path d="M57.4414 81.2419L57.4414 89.8417L59.8864 91.2533L59.8864 87.8329L62.8485 89.5431L77.001 97.7141L77.001 101.134L79.4459 102.546L79.4459 93.9462L57.4414 81.2419Z" fill="white"/>
    <path d="M60.996 79.1896L75.8914 87.7895C77.8545 88.9229 79.4459 91.6794 79.4459 93.9462L96.1186 84.3201L101.45 81.2417L79.4459 68.5374L60.996 79.1896Z" fill="white"/>
    <path d="M79.4459 93.9462L79.4459 102.546L101.45 89.8419L101.45 81.2417L96.1186 84.3201L79.4459 93.9462Z" fill="white"/>
    <path d="M57.4414 81.2419L79.4459 93.9462C79.4459 91.6794 77.8545 88.9229 75.8914 87.7895L60.996 79.1896C59.0328 78.0562 57.4414 78.9751 57.4414 81.2419Z" fill="white"/>
    <path d="M57.4414 81.2419L57.4414 89.8417L59.8864 91.2533M57.4414 81.2419L79.4459 93.9462M57.4414 81.2419V81.2419C57.4414 78.9751 59.0328 78.0562 60.996 79.1896V79.1896M79.4459 93.9462L79.4459 102.546M79.4459 93.9462V93.9462C79.4459 91.6794 77.8545 88.9229 75.8914 87.7895L60.996 79.1896M79.4459 93.9462L96.1186 84.3201L101.45 81.2417M79.4459 102.546L77.001 101.134L77.001 97.7141L62.8485 89.5431M79.4459 102.546L101.45 89.8419L101.45 81.2417M59.8864 91.2533L59.8864 87.8329L62.8485 89.5431M59.8864 91.2533L62.8485 89.5431M79.4459 68.5374L101.45 81.2417M79.4459 68.5374L79.4459 57.6604C79.4459 56.0035 80.6091 55.332 82.044 56.1604L98.8524 65.8647C100.287 66.6931 101.45 68.7079 101.45 70.3647L101.45 81.2417M79.4459 68.5374L60.996 79.1896" stroke="#272727"/>
</svg>
