<svg width="112" height="128" viewBox="0 0 112 128" fill="none" xmlns="http://www.w3.org/2000/svg">
    <path d="M29 30.8952L63.4595 11L111.15 38.5339V43.5339V48.5339V53.4291V58.4291V63.4291V68.4291V73.3243V78.3243L83.1496 94.4901V97.4291V102.324V107.324L48.6901 127.219L1 99.6856V94.6856V89.7904V84.7904V79.7904V74.7904V69.8952V64.8952V59.8952L29 43.7294V40.8952V35.8952V30.8952Z" fill="#F6F6F6"/>
    <path d="M29 20.8952L63.4595 1L111.15 28.5339V33.5339V38.5339V43.4291V48.4291V53.4291V58.4291V63.3243V68.3243L76.6901 88.2195L29 60.6856V55.6856V50.7904V45.7904V40.7904V35.7904V30.8952V25.8952V20.8952Z" fill="white"/>
    <path d="M29 20.8952L63.4595 1L111.15 28.5339M29 20.8952L76.6901 48.4291M29 20.8952V25.8952M76.6901 48.4291L111.15 28.5339M76.6901 48.4291V53.4291M111.15 28.5339V33.5339M29 25.8952L76.6901 53.4291M29 25.8952V30.8952M76.6901 53.4291L111.15 33.5339M76.6901 53.4291V58.4291M111.15 33.5339V38.5339M29 30.8952L76.6901 58.4291M29 30.8952V35.7904M76.6901 58.4291L111.15 38.5339M76.6901 58.4291V63.3243M111.15 38.5339V43.4291M29 35.7904L76.6901 63.3243M29 35.7904V40.7904M76.6901 63.3243L111.15 43.4291M76.6901 63.3243V68.3243M111.15 43.4291V48.4291M29 40.7904L76.6901 68.3243M29 40.7904V45.7904M76.6901 68.3243L111.15 48.4291M76.6901 68.3243V73.3243M111.15 48.4291V53.4291M29 45.7904L76.6901 73.3243M29 45.7904V50.7904M76.6901 73.3243L111.15 53.4291M76.6901 73.3243V78.3243M111.15 53.4291V58.4291M29 50.7904L76.6901 78.3243M29 50.7904V55.6856M76.6901 78.3243L111.15 58.4291M76.6901 78.3243V83.2195M111.15 58.4291V63.3243M29 55.6856L76.6901 83.2195M29 55.6856V60.6856L76.6901 88.2195M76.6901 83.2195L111.15 63.3243M76.6901 83.2195V88.2195M111.15 63.3243V68.3243L76.6901 88.2195" stroke="#272727"/>
    <path d="M1 49.8952L35.4595 30L83.1496 57.5339V62.5339V67.5339V72.4291V77.4291V82.4291V87.4291V92.3243V97.3243L48.6901 117.219L1 89.6856V84.6856V79.7904V74.7904V69.7904V64.7904V59.8952V54.8952V49.8952Z" fill="white"/>
    <path d="M1 49.8952L35.4595 30L83.1496 57.5339M1 49.8952L48.6901 77.4291M1 49.8952V54.8952M48.6901 77.4291L83.1496 57.5339M48.6901 77.4291V82.4291M83.1496 57.5339V62.5339M1 54.8952L48.6901 82.4291M1 54.8952V59.8952M48.6901 82.4291L83.1496 62.5339M48.6901 82.4291V87.4291M83.1496 62.5339V67.5339M1 59.8952L48.6901 87.4291M1 59.8952V64.7904M48.6901 87.4291L83.1496 67.5339M48.6901 87.4291V92.3243M83.1496 67.5339V72.4291M1 64.7904L48.6901 92.3243M1 64.7904V69.7904M48.6901 92.3243L83.1496 72.4291M48.6901 92.3243V97.3243M83.1496 72.4291V77.4291M1 69.7904L48.6901 97.3243M1 69.7904V74.7904M48.6901 97.3243L83.1496 77.4291M48.6901 97.3243V102.324M83.1496 77.4291V82.4291M1 74.7904L48.6901 102.324M1 74.7904V79.7904M48.6901 102.324L83.1496 82.4291M48.6901 102.324V107.324M83.1496 82.4291V87.4291M1 79.7904L48.6901 107.324M1 79.7904V84.6856M48.6901 107.324L83.1496 87.4291M48.6901 107.324V112.219M83.1496 87.4291V92.3243M1 84.6856L48.6901 112.219M1 84.6856V89.6856L48.6901 117.219M48.6901 112.219L83.1496 92.3243M48.6901 112.219V117.219M83.1496 92.3243V97.3243L48.6901 117.219" stroke="#272727"/>
    <path d="M68.1518 7.25L40.4342 23.2527L39.5682 22.7527L67.2857 6.75L68.1518 7.25ZM73.6953 10.4505L45.9777 26.4533L45.1117 25.9533L72.8293 9.95055L73.6953 10.4505ZM79.2388 13.6511L54.293 28.0536L53.427 27.5536L78.3728 13.1511L79.2388 13.6511ZM84.7823 16.8516L59.8365 31.2541L58.9705 30.7541L83.9163 16.3516L84.7823 16.8516ZM90.3258 20.0522L74.3882 29.2538L73.5222 28.7538L89.4598 19.5522L90.3258 20.0522ZM95.8693 23.2527L84.7823 29.6538L83.9163 29.1538L95.0033 22.7527L95.8693 23.2527ZM69.8841 39.7557C72.5152 41.2747 76.7811 41.2747 79.4122 39.7557L80.2782 40.2557C77.1688 42.0509 72.1275 42.0509 69.0181 40.2557L69.8841 39.7557ZM79.4122 39.7557C82.0433 38.2366 82.0433 35.7737 79.4122 34.2546L80.2782 33.7546C83.3876 35.5498 83.3876 38.4605 80.2782 40.2557L79.4122 39.7557ZM79.4122 34.2546C76.7811 32.7356 72.5152 32.7356 69.8841 34.2546L69.0181 33.7546C72.1275 31.9594 77.1688 31.9594 80.2782 33.7546L79.4122 34.2546ZM69.8841 34.2546C67.253 35.7737 67.253 38.2366 69.8841 39.7557L69.0181 40.2557C65.9087 38.4605 65.9087 35.5498 69.0181 33.7546L69.8841 34.2546Z" fill="#272727"/>
    <path d="M36.3788 38.9287L36.3788 38.5751L35.7664 38.5751L35.7664 38.9287L36.3788 38.9287ZM55.0852 49.7288L55.0852 50.0824H55.6976L55.6976 49.7288H55.0852ZM16.7692 50.7503L24.7862 46.1216L23.9202 45.6216L15.9032 50.2503L16.7692 50.7503ZM41.9585 56.0361L33.9415 60.6647L34.8075 61.1647L42.8246 56.5361L41.9585 56.0361ZM18.1054 52.5646L16.7692 51.7932L15.9032 52.2932L17.2393 53.0646L18.1054 52.5646ZM26.5926 46.1216L27.9287 46.8931L28.7948 46.3931L27.4586 45.6216L26.5926 46.1216ZM18.1054 53.0646L28.7948 46.8931L27.9287 46.3931L17.2393 52.5646L18.1054 53.0646ZM32.1352 60.6647L30.8129 59.9013L29.9469 60.4013L31.2692 61.1647L32.1352 60.6647ZM30.8129 59.9013L18.1054 52.5646L17.2393 53.0646L29.9469 60.4013L30.8129 59.9013ZM27.9287 46.8931L40.6363 54.2298L41.5023 53.7298L28.7948 46.3931L27.9287 46.8931ZM40.6363 54.2298L41.9585 54.9932L42.8246 54.4932L41.5023 53.7298L40.6363 54.2298ZM30.8129 60.4013L41.5023 54.2298L40.6363 53.7298L29.9469 59.9013L30.8129 60.4013ZM33.9415 60.6647C33.4427 60.9527 32.634 60.9527 32.1352 60.6647L31.2692 61.1647C32.2463 61.7289 33.8304 61.7289 34.8075 61.1647L33.9415 60.6647ZM42.8246 56.5361C43.8017 55.972 43.8017 55.0573 42.8246 54.4932L41.9585 54.9932C42.4574 55.2812 42.4574 55.7481 41.9585 56.0361L42.8246 56.5361ZM24.7862 46.1216C25.285 45.8337 26.0937 45.8337 26.5926 46.1216L27.4586 45.6216C26.4815 45.0575 24.8973 45.0575 23.9202 45.6216L24.7862 46.1216ZM15.9032 50.2503C14.9261 50.8144 14.9261 51.729 15.9032 52.2932L16.7692 51.7932C16.2704 51.5052 16.2704 51.0383 16.7692 50.7503L15.9032 50.2503ZM35.9458 39.1787L54.6522 49.9788L55.5182 49.4788L36.8118 38.6787L35.9458 39.1787ZM55.0852 49.3753H48.4043L48.4043 50.0824H55.0852L55.0852 49.3753ZM55.6976 49.7288L55.6976 45.8716L54.4728 45.8716L54.4728 49.7288L55.6976 49.7288ZM35.7664 38.9287L35.7664 42.7859L36.9912 42.7859L36.9912 38.9287L35.7664 38.9287ZM36.3788 39.2822L43.0597 39.2822L43.0596 38.5751L36.3788 38.5751L36.3788 39.2822ZM39.4841 65.4077L63.2012 51.7146L62.3352 51.2146L38.6181 64.9077L39.4841 65.4077ZM43.4927 67.722L58.8587 58.8504L57.9926 58.3504L42.6266 67.222L43.4927 67.722ZM47.5012 70.0363L62.8672 61.1647L62.0012 60.6647L46.6352 69.5363L47.5012 70.0363Z" fill="#272727"/>
</svg>
