<svg width="16" height="17" viewBox="0 0 16 17" fill="none" xmlns="http://www.w3.org/2000/svg">
    <path d="M14 8L2 8" stroke="#A81815"/>
    <path d="M14 8L2 8" stroke="#DE2C29"/>
    <path d="M14 8L14.3293 8.37629L14.7593 8L14.3293 7.62371L14 8ZM10.3293 11.8763L14.3293 8.37629L13.6707 7.62371L9.67075 11.1237L10.3293 11.8763ZM14.3293 7.62371L10.3293 4.12371L9.67075 4.87629L13.6707 8.37629L14.3293 7.62371Z" fill="#A81815"/>
    <path d="M14 8L14.3293 8.37629L14.7593 8L14.3293 7.62371L14 8ZM10.3293 11.8763L14.3293 8.37629L13.6707 7.62371L9.67075 11.1237L10.3293 11.8763ZM14.3293 7.62371L10.3293 4.12371L9.67075 4.87629L13.6707 8.37629L14.3293 7.62371Z" fill="#DE2C29"/>
</svg>
