<svg width="32" height="32" viewBox="0 0 32 32" fill="none" xmlns="http://www.w3.org/2000/svg">
    <path d="M5.33381 19.7528C5.12822 19.5684 4.81211 19.5856 4.62775 19.7912C4.44339 19.9968 4.4606 20.3129 4.66619 20.4972L5.33381 19.7528ZM12.6667 27L12.3329 27.3722C12.4395 27.4679 12.582 27.5132 12.7243 27.4967C12.8666 27.4802 12.995 27.4034 13.0769 27.2859L12.6667 27ZM28.4102 5.2859C28.5681 5.05935 28.5124 4.7477 28.2859 4.5898C28.0593 4.4319 27.7477 4.48756 27.5898 4.7141L28.4102 5.2859ZM4.66619 20.4972L12.3329 27.3722L13.0005 26.6278L5.33381 19.7528L4.66619 20.4972ZM13.0769 27.2859L28.4102 5.2859L27.5898 4.7141L12.2565 26.7141L13.0769 27.2859Z" fill="white"/>
</svg>
