<svg width="48" height="20" viewBox="0 0 48 20" fill="none" xmlns="http://www.w3.org/2000/svg">
    <path d="M0 4.20033V19.1387H7.96949V2.54115L0 4.20033Z" fill="white"/>
    <path d="M11.5405 1.79774V11.9461C11.5405 17.0252 16.6941 19.1387 23.052 19.1387H29.8201L27.5745 14.1592H23.9375C21.4935 14.1592 19.51 13.8051 19.51 11.3929V9.17978H25.2642V9.03632L23.0832 4.20033H19.51V0.138672L11.5405 1.79774Z" fill="white"/>
    <path d="M35.9885 19.1387H33.8288L31.5832 14.1592H35.103C37.547 14.1592 39.5305 13.8051 39.5305 11.3929V9.17978H36.0188L33.7807 4.20033L47.5 4.20033V11.9461C47.5 17.0252 42.3464 19.1387 35.9885 19.1387Z" fill="white"/>
</svg>
