<svg width="250" height="63" viewBox="0 0 250 63" fill="none" xmlns="http://www.w3.org/2000/svg">
    <rect x="87.3398" y="0.922729" width="10.2753" height="9.05024" fill="#A81815"/>
    <rect x="87.3398" y="0.922729" width="10.2753" height="9.05024" fill="#DE2C29"/>
    <path d="M66.79 48.7596H73.2121V50.0525H68.0744V55.3358H73.2121V56.6287H68.0744V61.6886H73.2121V62.9814H66.79V48.7596Z" fill="#272727"/>
    <path d="M2.56957 48.7596H3.85397L8.34941 61.0421L12.8448 48.7596H14.1292L15.4137 62.9814H14.1292L13.0895 52.0224L8.99161 62.9814H7.7072L3.60936 52.0224L2.56957 62.9814H1.28516L2.56957 48.7596Z" fill="#272727"/>
    <path d="M184.956 48.7596V62.9814H191.378V61.6886H186.24V56.6287H191.378V55.3358H186.24V50.0525H191.378V48.7596H184.956Z" fill="#272727"/>
    <path d="M244.038 48.7596H242.754V62.9814H249.176V61.6886H244.038V48.7596Z" fill="#272727"/>
    <path fill-rule="evenodd" clip-rule="evenodd" d="M125.231 48.7596V62.9814H129.084C130.248 62.9814 131.361 62.6844 132.2 62.0344C133.059 61.3691 133.579 60.37 133.579 59.1028C133.579 57.8355 133.059 56.8364 132.2 56.1711C131.898 55.9373 131.561 55.7491 131.199 55.6041C131.278 55.549 131.354 55.4918 131.429 55.4327C132.268 54.7711 132.937 53.7936 132.937 52.6383C132.937 50.4962 131.212 48.7596 129.084 48.7596H125.231ZM128.442 56.517C128.654 56.517 129.084 56.517 129.084 56.517C130.048 56.517 130.861 56.765 131.417 57.1956C131.953 57.6109 132.295 58.2279 132.295 59.1028C132.295 59.9776 131.953 60.5947 131.417 61.0099C130.861 61.4406 130.048 61.6886 129.084 61.6886H126.515V56.517H128.442ZM128.442 55.2241H126.515V50.0525H129.084C130.503 50.0525 131.653 51.2102 131.653 52.6383C131.653 53.2681 131.282 53.9068 130.637 54.415C129.995 54.9213 129.169 55.2241 128.442 55.2241Z" fill="#272727"/>
    <path d="M18.6239 0.922729C9.06715 0.922729 0 6.50583 0 19.0232V39.7095H56.514V29.3663H11.5597V25.4877H56.514V15.1445H11.6099C11.9067 11.6095 16.6661 11.2659 19.9083 11.2659H56.514V0.922729H18.6239Z" fill="#272727"/>
    <path d="M62.936 0.922729H74.4957V29.3663H102.111C104.995 29.3663 106.777 28.893 107.735 28.2384C108.3 27.8527 109.175 27.0452 109.175 24.1948H120.734C120.734 29.7482 118.72 34.1121 114.789 36.7971C111.252 39.2132 106.932 39.7095 103.395 39.7095H62.936V0.922729Z" fill="#272727"/>
    <path fill-rule="evenodd" clip-rule="evenodd" d="M215.139 0.922729C203.96 0.922729 192.661 7.91769 192.661 20.3161V39.7095H204.221V30.6592H237.616V39.7095H249.175V0.922729H215.139ZM237.616 20.3161H204.221C204.221 13.5294 210.835 11.2659 216.423 11.2659H237.616V20.3161Z" fill="#272727"/>
    <path d="M128.441 0.922729H133.579C144.721 0.922729 153.196 5.1038 161.429 12.6025C165.738 16.5267 169.241 21.17 173.395 25.2286V0.922729H184.955V39.7095H179.817C170.184 39.7095 161.875 26.9568 154.535 20.2723C150.389 16.4957 145.644 13.4456 140.001 12.7796V39.7095H128.441V0.922729Z" fill="#272727"/>
</svg>
