<svg width="90" height="22" viewBox="0 0 90 22" fill="none" xmlns="http://www.w3.org/2000/svg">
    <rect x="31.7109" width="3.66666" height="3.20833" fill="white"/>
    <path d="M24.3789 16.9585H26.6706V17.4168H24.8372V19.2898H26.6706V19.7481H24.8372V21.5418H26.6706V22.0002H24.3789V16.9585Z" fill="white"/>
    <path d="M1.46224 16.9585H1.92057L3.52474 21.3127L5.1289 16.9585H5.58724L6.04557 22.0002H5.58724L5.21621 18.1152L3.7539 22.0002H3.29557L1.83328 18.1152L1.46224 22.0002H1.00391L1.46224 16.9585Z" fill="white"/>
    <path d="M66.5455 16.9585V22.0002H68.8372V21.5418H67.0039V19.7481H68.8372V19.2898H67.0039V17.4168H68.8372V16.9585H66.5455Z" fill="white"/>
    <path d="M87.6288 16.9585H87.1705V22.0002H89.4622V21.5418H87.6288V16.9585Z" fill="white"/>
    <path fill-rule="evenodd" clip-rule="evenodd" d="M45.233 16.9585V22.0002H46.608C47.0234 22.0002 47.4208 21.8949 47.7201 21.6644C48.0265 21.4286 48.2122 21.0744 48.2122 20.6252C48.2122 20.1759 48.0265 19.8217 47.7201 19.5859C47.6124 19.503 47.492 19.4363 47.3627 19.3849C47.3908 19.3653 47.4183 19.3451 47.445 19.3241C47.7444 19.0896 47.983 18.7431 47.983 18.3335C47.983 17.5741 47.3674 16.9585 46.608 16.9585H45.233ZM46.3789 19.7085C46.4548 19.7085 46.608 19.7085 46.608 19.7085C46.9521 19.7085 47.2422 19.7964 47.4405 19.9491C47.6318 20.0963 47.7539 20.315 47.7539 20.6252C47.7539 20.9353 47.6318 21.154 47.4405 21.3013C47.2422 21.4539 46.9521 21.5418 46.608 21.5418H45.6914V19.7085H46.3789ZM46.3789 19.2502H45.6914V17.4168H46.608C47.1143 17.4168 47.5247 17.8272 47.5247 18.3335C47.5247 18.5568 47.3923 18.7832 47.1624 18.9633C46.9333 19.1428 46.6383 19.2502 46.3789 19.2502Z" fill="white"/>
    <path d="M7.1888 0C3.77852 0 0.542969 1.97922 0.542969 6.41666V13.75H20.7096V10.0833H4.66797V8.70833H20.7096V5.04166H4.6859C4.79181 3.78847 6.49017 3.66666 7.64713 3.66666H20.7096V0H7.1888Z" fill="white"/>
    <path d="M23.0013 0H27.1263V10.0833H36.9804C38.0098 10.0833 38.6455 9.91551 38.9875 9.68347C39.189 9.54676 39.5013 9.26047 39.5013 8.24999H43.6263C43.6263 10.2187 42.9073 11.7657 41.5046 12.7175C40.2424 13.5741 38.7011 13.75 37.4388 13.75H23.0013V0Z" fill="white"/>
    <path fill-rule="evenodd" clip-rule="evenodd" d="M77.3137 0C73.3247 0 69.2929 2.47973 69.2929 6.87499V13.75H73.4179V10.5417H85.3346V13.75H89.4596V0H77.3137ZM85.3346 6.87499H73.4179C73.4179 4.46908 75.7782 3.66666 77.7721 3.66666H85.3346V6.87499Z" fill="white"/>
    <path d="M46.3763 0H48.2096C52.1856 0 55.2098 1.4822 58.1479 4.14051C59.6855 5.53166 60.9354 7.17771 62.4179 8.6165V0H66.5429V13.75H64.7096C61.2721 13.75 58.307 9.22914 55.6879 6.85948C54.2082 5.52066 52.5152 4.43938 50.5013 4.20327V13.75H46.3763V0Z" fill="white"/>
</svg>
