<svg width="70" height="43" viewBox="0 0 70 43" fill="none" xmlns="http://www.w3.org/2000/svg">
    <path d="M18.1353 9.12412C16.9292 13.6052 13.3481 16.5433 13.3481 16.5433C13.3481 16.5433 11.7223 12.2162 12.9284 7.73514C14.1345 3.25406 17.7156 0.315918 17.7156 0.315918C17.7156 0.315918 19.3414 4.64304 18.1353 9.12412Z" fill="#8D8D91"/>
    <path d="M11.0206 12.6855C12.2267 17.1666 10.6009 21.4937 10.6009 21.4937C10.6009 21.4937 7.01976 18.5556 5.81369 14.0745C4.60763 9.59344 6.23338 5.26632 6.23338 5.26632C6.23338 5.26632 9.81455 8.20446 11.0206 12.6855Z" fill="#8D8D91"/>
    <path d="M7.87206 21.1664C11.1671 24.4467 11.9324 29.0034 11.9324 29.0034C11.9324 29.0034 7.35536 28.2415 4.06033 24.9611C0.765289 21.6808 0 17.1241 0 17.1241C0 17.1241 4.57702 17.886 7.87206 21.1664Z" fill="#8D8D91"/>
    <path d="M9.66909 30.0764C14.1702 31.2771 17.1215 34.8424 17.1215 34.8424C17.1215 34.8424 12.775 36.4609 8.27389 35.2602C3.77279 34.0595 0.821516 30.4942 0.821516 30.4942C0.821516 30.4942 5.16798 28.8757 9.66909 30.0764Z" fill="#8D8D91"/>
    <path d="M14.1787 37.0572C18.6799 35.8565 23.0263 37.475 23.0263 37.475C23.0263 37.475 20.075 41.0403 15.5739 42.241C11.0728 43.4417 6.72637 41.8232 6.72637 41.8232C6.72637 41.8232 9.67764 38.2579 14.1787 37.0572Z" fill="#8D8D91"/>
    <path d="M26.811 20.7806L30.353 17.4366C32.509 15.4346 32.927 14.0706 32.927 12.5746C32.927 9.78057 30.639 8.02057 27.207 8.02057C24.435 8.02057 22.279 9.14257 21.091 10.8806L23.687 12.5526C24.435 11.5186 25.557 11.0126 26.877 11.0126C28.505 11.0126 29.341 11.7166 29.341 12.9266C29.341 13.6746 29.099 14.4666 27.735 15.7646L21.795 21.3746V23.6846H33.433V20.7806H26.811ZM41.4606 23.9486C45.2666 23.9486 48.0606 21.0666 48.0606 15.9846C48.0606 10.9026 45.2666 8.02057 41.4606 8.02057C37.6766 8.02057 34.8606 10.9026 34.8606 15.9846C34.8606 21.0666 37.6766 23.9486 41.4606 23.9486ZM41.4606 20.9346C39.7006 20.9346 38.4686 19.4826 38.4686 15.9846C38.4686 12.4866 39.7006 11.0346 41.4606 11.0346C43.2426 11.0346 44.4746 12.4866 44.4746 15.9846C44.4746 19.4826 43.2426 20.9346 41.4606 20.9346Z" fill="#8D8D91"/>
    <path d="M23.9533 26.6637L23.8733 28.9357C23.8173 30.3677 23.6493 31.1997 22.9933 31.1997C22.9133 31.1997 22.8413 31.1917 22.7613 31.1677L22.6813 32.2637C22.9213 32.3197 23.1293 32.3517 23.3213 32.3517C24.6333 32.3517 24.9453 31.0877 25.0173 28.8877L25.0573 27.7197H26.9773V32.2637H28.2573V26.6637H23.9533ZM34.9439 31.2237V29.9277H37.5439V28.9197H34.9439V27.7037H37.8879V26.6637H33.6559V32.2637H37.9919V31.2237H34.9439ZM47.3187 26.6637H42.4627V27.7197H44.2467V32.2637H45.5267V27.7197H47.3187V26.6637Z" fill="#8D8D91"/>
    <path d="M51.8647 9.12412C53.0708 13.6052 56.6519 16.5433 56.6519 16.5433C56.6519 16.5433 58.2777 12.2162 57.0716 7.73514C55.8655 3.25406 52.2844 0.315918 52.2844 0.315918C52.2844 0.315918 50.6586 4.64304 51.8647 9.12412Z" fill="#8D8D91"/>
    <path d="M58.9794 12.6855C57.7733 17.1666 59.3991 21.4937 59.3991 21.4937C59.3991 21.4937 62.9802 18.5556 64.1863 14.0745C65.3924 9.59344 63.7666 5.26632 63.7666 5.26632C63.7666 5.26632 60.1854 8.20446 58.9794 12.6855Z" fill="#8D8D91"/>
    <path d="M62.1279 21.1664C58.8329 24.4467 58.0676 29.0034 58.0676 29.0034C58.0676 29.0034 62.6446 28.2415 65.9397 24.9611C69.2347 21.6808 70 17.1241 70 17.1241C70 17.1241 65.423 17.886 62.1279 21.1664Z" fill="#8D8D91"/>
    <path d="M60.3309 30.0764C55.8298 31.2771 52.8785 34.8424 52.8785 34.8424C52.8785 34.8424 57.225 36.4609 61.7261 35.2602C66.2272 34.0595 69.1785 30.4942 69.1785 30.4942C69.1785 30.4942 64.832 28.8757 60.3309 30.0764Z" fill="#8D8D91"/>
    <path d="M55.8213 37.0572C51.3201 35.8565 46.9737 37.475 46.9737 37.475C46.9737 37.475 49.925 41.0403 54.4261 42.241C58.9272 43.4417 63.2736 41.8232 63.2736 41.8232C63.2736 41.8232 60.3224 38.2579 55.8213 37.0572Z" fill="#8D8D91"/>
</svg>
