<svg width="24" height="24" viewBox="0 0 24 24" fill="none" xmlns="http://www.w3.org/2000/svg">
    <g clip-path="url(#clip0_305_78378)">
        <path d="M0.0338035 11.3798C0.0357209 10.0187 0.729585 8.75204 1.87551 8.01766L11.018 2.1585C12.878 0.966509 15.3521 1.50801 16.5441 3.36797L21.7639 11.5128C22.9558 13.3728 22.4144 15.8469 20.5544 17.0389L11.4119 22.898C10.2659 23.6324 8.82522 23.7337 7.5878 23.1669L0.0220808 19.7014L0.0338035 11.3798Z" fill="#A81815"/>
        <path d="M0.0338035 11.3798C0.0357209 10.0187 0.729585 8.75204 1.87551 8.01766L11.018 2.1585C12.878 0.966509 15.3521 1.50801 16.5441 3.36797L21.7639 11.5128C22.9558 13.3728 22.4144 15.8469 20.5544 17.0389L11.4119 22.898C10.2659 23.6324 8.82522 23.7337 7.5878 23.1669L0.0220808 19.7014L0.0338035 11.3798Z" fill="#DE2C29"/>
        <path d="M5.76003 12.2755C5.19573 11.395 5.45208 10.2237 6.33261 9.6594V9.6594C7.21313 9.0951 8.38438 9.35145 8.94868 10.232V10.232C9.51298 11.1125 9.25663 12.2838 8.37611 12.848V12.848C7.49559 13.4123 6.32433 13.156 5.76003 12.2755V12.2755Z" stroke="white" stroke-width="1.26242" stroke-linejoin="round"/>
        <path d="M14.4788 14.1832C13.9145 13.3027 14.1708 12.1314 15.0514 11.5671V11.5671C15.9319 11.0028 17.1031 11.2592 17.6674 12.1397V12.1397C18.2317 13.0202 17.9754 14.1915 17.0949 14.7558V14.7558C16.2143 15.3201 15.0431 15.0637 14.4788 14.1832V14.1832Z" stroke="white" stroke-width="1.26242" stroke-linejoin="round"/>
        <path d="M13.2413 5.23181L10.1876 19.1842" stroke="white" stroke-width="1.26242"/>
    </g>
    <defs>
        <clipPath id="clip0_305_78378">
            <rect width="24" height="24" fill="white"/>
        </clipPath>
    </defs>
</svg>
