<svg width="97" height="97" viewBox="0 0 97 97" fill="none" xmlns="http://www.w3.org/2000/svg">
    <path d="M5.5 57.9761V81.9761H35.5V57.9761M5.5 57.9761V15.9761H35.5V57.9761M5.5 57.9761H35.5M29.5 49.9761H22.5" stroke="#272727" stroke-linecap="round" stroke-linejoin="round"/>
    <path d="M36.5 71.9761H56.5M36.5 61.9761H56.5" stroke="#272727" stroke-linecap="round" stroke-linejoin="round"/>
    <path d="M35.5 51.9761H57.5V81.9761H35.5V51.9761Z" stroke="#272727" stroke-linecap="round" stroke-linejoin="round"/>
    <path d="M91.5 51.9761H57.5V81.9761H91.5V51.9761Z" stroke="#272727" stroke-linecap="round" stroke-linejoin="round"/>
    <path d="M85.5 63.9761H63.5V75.9761H85.5V63.9761Z" stroke="#272727" stroke-linecap="round" stroke-linejoin="round"/>
    <path d="M85.5 55.9761H63.5V59.9761H85.5V55.9761Z" stroke="#272727" stroke-linecap="round" stroke-linejoin="round"/>
    <path d="M49.5 55.9761H43.5" stroke="#272727" stroke-linecap="round" stroke-linejoin="round"/>
    <path d="M77.5 71.9761H71.5" stroke="#272727" stroke-linecap="round" stroke-linejoin="round"/>
    <path d="M49.5 65.9761H43.5M49.5 75.9761H43.5" stroke="#272727" stroke-linecap="round" stroke-linejoin="round"/>
    <path d="M65.5 27.9761H83.5M65.5 27.9761L67.3607 16.8117C67.4411 16.3295 67.8583 15.9761 68.3471 15.9761H80.6529C81.1417 15.9761 81.5589 16.3295 81.6393 16.8117L83.5 27.9761M65.5 27.9761H57.5L53.5 33.9761H95.5L91.5 27.9761H83.5" stroke="#272727" stroke-linejoin="round"/>
</svg>
