<svg width="97" height="97" viewBox="0 0 97 97" fill="none" xmlns="http://www.w3.org/2000/svg">
    <g clip-path="url(#clip0_1185_6062)">
        <path d="M87 47.1636H92.171C94.2656 47.1636 95.7155 49.2557 94.98 51.2169L91.037 61.7317C90.3051 63.6832 88.4395 64.9761 86.3553 64.9761H12.3781C10.3725 64.9761 8.56097 63.7776 7.77649 61.9318L3.27371 51.337C2.43281 49.3584 3.88485 47.1636 6.0347 47.1636H11M87 47.1636L83.0379 56.1827C82.5591 57.2724 81.4815 57.9761 80.2912 57.9761H17.7088C16.5186 57.9761 15.4409 57.2724 14.9622 56.1827L11 47.1636M87 47.1636L89.9785 40.1485C90.8185 38.1701 89.3665 35.9761 87.2171 35.9761H10.7829C8.63356 35.9761 7.18153 38.1701 8.02154 40.1485L11 47.1636" stroke="#272727" stroke-linejoin="round"/>
        <path d="M20.7604 73.7595L20.3364 73.4945L20.7604 73.7595ZM17.1399 65.3548L15.569 71.6385L16.5392 71.881L18.1101 65.5973L17.1399 65.3548ZM21.1844 74.0245L26.3615 65.7411L25.5135 65.2111L20.3364 73.4945L21.1844 74.0245ZM18.5653 75.4761C19.6302 75.4761 20.62 74.9275 21.1844 74.0245L20.3364 73.4945C19.9547 74.1051 19.2854 74.4761 18.5653 74.4761V75.4761ZM15.569 71.6385C15.0817 73.5878 16.556 75.4761 18.5653 75.4761V74.4761C17.2066 74.4761 16.2096 73.1992 16.5392 71.881L15.569 71.6385Z" fill="#272727"/>
        <path d="M77.4271 73.7595L77.8511 73.4945L77.4271 73.7595ZM81.0476 65.3548L82.6185 71.6385L81.6483 71.881L80.0774 65.5973L81.0476 65.3548ZM77.0031 74.0245L71.826 65.7411L72.674 65.2111L77.8511 73.4945L77.0031 74.0245ZM79.6222 75.4761C78.5573 75.4761 77.5675 74.9275 77.0031 74.0245L77.8511 73.4945C78.2328 74.1051 78.9021 74.4761 79.6222 74.4761V75.4761ZM82.6185 71.6385C83.1058 73.5878 81.6315 75.4761 79.6222 75.4761V74.4761C80.9809 74.4761 81.9779 73.1992 81.6483 71.881L82.6185 71.6385Z" fill="#272727"/>
        <path d="M40.1875 57.1636V50.8511C40.1875 49.7465 39.2921 48.8511 38.1875 48.8511H25.5625C24.4579 48.8511 23.5625 49.7465 23.5625 50.8511V57.1636" stroke="#272727" stroke-linejoin="round"/>
        <path d="M73.4375 57.1636V50.8511C73.4375 49.7465 72.5421 48.8511 71.4375 48.8511H58.8125C57.7079 48.8511 56.8125 49.7465 56.8125 50.8511V57.1636" stroke="#272727" stroke-linejoin="round"/>
    </g>
    <defs>
        <clipPath id="clip0_1185_6062">
            <rect width="96" height="96" fill="white" transform="translate(0.5 0.976074)"/>
        </clipPath>
    </defs>
</svg>
