<svg width="97" height="97" viewBox="0 0 97 97" fill="none" xmlns="http://www.w3.org/2000/svg">
    <path d="M63.5 75.976H91.5V51.9761H63.5M63.5 75.976H35.5V51.9761H63.5M63.5 75.976V51.9761" stroke="#272727" stroke-linecap="round" stroke-linejoin="round"/>
    <path d="M21.5 50.9761L21.5 44.9761" stroke="#272727" stroke-linecap="round" stroke-linejoin="round"/>
    <path d="M57.5 65.9761L57.5 61.9761M69.5 65.9761L69.5 61.9761M69.5 29.9761L69.5 25.9761M57.5 29.9761L57.5 25.9761" stroke="#272727" stroke-linecap="round" stroke-linejoin="round"/>
    <path d="M49.5 75.9761L44.5 81.9761H35.5V75.9761" stroke="#272727" stroke-linecap="round" stroke-linejoin="round"/>
    <path d="M77.5 75.9761L82.5 81.9761H91.5V75.9761" stroke="#272727" stroke-linecap="round" stroke-linejoin="round"/>
    <path d="M63.5 35.9761H91.5V15.9761H63.5M63.5 35.9761H35.5V15.9761H63.5M63.5 35.9761V15.9761" stroke="#272727" stroke-linecap="round" stroke-linejoin="round"/>
    <path d="M3.5 15.9761H29.5V81.9761H3.5V15.9761Z" stroke="#272727" stroke-linecap="round" stroke-linejoin="round"/>
</svg>
