<svg width="97" height="97" viewBox="0 0 97 97" fill="none" xmlns="http://www.w3.org/2000/svg">
    <path fill-rule="evenodd" clip-rule="evenodd" d="M83.5 62.4761H29.5V61.4761H83.5C84.8807 61.4761 86 62.5954 86 63.9761V67.9761V77.9761V83.9761C86 84.2522 85.7762 84.4761 85.5 84.4761H79.5C79.3328 84.4761 79.1767 84.3925 79.084 84.2534L75.2324 78.4761H39.7676L35.916 84.2534C35.8233 84.3925 35.6672 84.4761 35.5 84.4761H27.5C27.2239 84.4761 27 84.2522 27 83.9761C27 83.6999 27.2239 83.4761 27.5 83.4761H35.2324L38.5657 78.4761H29.5V77.4761H39.4932H39.5078H75.4923C75.4971 77.476 75.502 77.476 75.5069 77.4761H85V68.4761H29.5V67.4761H85V63.9761C85 63.1476 84.3284 62.4761 83.5 62.4761ZM76.4343 78.4761L79.7676 83.4761H85V78.4761H76.4343Z" fill="#272727"/>
    <path d="M29.5 15.9761H85.5V23.9764H29.5M29.5 15.9761L7.5 15.9761V83.9764H29.5V23.9764M29.5 15.9761V23.9764" stroke="#272727" stroke-linejoin="round"/>
    <path d="M23.5 50.9761L23.5 44.9761" stroke="#272727" stroke-linecap="round" stroke-linejoin="round"/>
    <path d="M37.5 33.9761C37.5 32.3192 38.8431 30.9761 40.5 30.9761V30.9761C42.1569 30.9761 43.5 32.3192 43.5 33.9761V36.9761C43.5 38.6329 42.1569 39.9761 40.5 39.9761V39.9761C38.8431 39.9761 37.5 38.6329 37.5 36.9761V33.9761Z" stroke="#272727" stroke-linejoin="round"/>
    <path d="M51.5 33.9761C51.5 32.3192 52.8431 30.9761 54.5 30.9761V30.9761C56.1569 30.9761 57.5 32.3192 57.5 33.9761V36.9761C57.5 38.6329 56.1569 39.9761 54.5 39.9761V39.9761C52.8431 39.9761 51.5 38.6329 51.5 36.9761V33.9761Z" stroke="#272727" stroke-linejoin="round"/>
    <path d="M65.5 33.9761C65.5 32.3192 66.8431 30.9761 68.5 30.9761V30.9761C70.1569 30.9761 71.5 32.3192 71.5 33.9761V36.9761C71.5 38.6329 70.1569 39.9761 68.5 39.9761V39.9761C66.8431 39.9761 65.5 38.6329 65.5 36.9761V33.9761Z" stroke="#272727" stroke-linejoin="round"/>
    <path d="M79.5 33.9761C79.5 32.3192 80.8432 30.9761 82.5 30.9761V30.9761C84.1569 30.9761 85.5 32.3192 85.5 33.9761V36.9761C85.5 38.6329 84.1569 39.9761 82.5 39.9761V39.9761C80.8432 39.9761 79.5 38.6329 79.5 36.9761V33.9761Z" stroke="#272727" stroke-linejoin="round"/>
</svg>
