<svg width="97" height="96" viewBox="0 0 97 96" fill="none" xmlns="http://www.w3.org/2000/svg">
    <path d="M55.5667 11.462L55.7437 11.5836L55.9537 11.539L64.3406 9.75753L69.0113 16.9476L69.1282 17.1277L69.3394 17.1668L77.7695 18.7305L79.3332 27.1606L79.3723 27.3718L79.5524 27.4887L86.7425 32.1595L84.961 40.5463L84.9164 40.7563L85.038 40.9333L89.8934 48L85.038 55.0667L84.9164 55.2437L84.961 55.4537L86.7425 63.8406L79.5524 68.5113L79.3723 68.6282L79.3332 68.8394L77.7695 77.2695L69.3394 78.8332L69.1282 78.8723L69.0113 79.0524L64.3406 86.2425L55.9537 84.461L55.7437 84.4164L55.5667 84.538L48.5 89.3934L41.4333 84.538L41.2563 84.4164L41.0463 84.461L32.6595 86.2425L27.9887 79.0524L27.8718 78.8723L27.6606 78.8332L19.2305 77.2695L17.6668 68.8394L17.6277 68.6282L17.4476 68.5113L10.2575 63.8406L12.039 55.4537L12.0836 55.2437L11.962 55.0667L7.10665 48L11.962 40.9333L12.0836 40.7563L12.039 40.5463L10.2575 32.1595L17.4476 27.4887L17.6277 27.3718L17.6668 27.1606L19.2305 18.7305L27.6606 17.1668L27.8718 17.1277L27.9887 16.9476L32.6595 9.75753L41.0463 11.539L41.2563 11.5836L41.4333 11.462L48.5 6.60665L55.5667 11.462Z" stroke="#272727"/>
    <path d="M40.2576 28H64.5L53.8333 48.9524H64.5L36.3788 72L44.1364 48.9524H32.5L40.2576 28Z" stroke="#272727"/>
    <path d="M18.4984 39.9608L25.9987 41.9705M78.5012 56.0384L71.0008 54.0287" stroke="#272727"/>
    <path d="M21.604 32.4701L28.3286 36.3526M75.401 63.5298L68.6764 59.6473" stroke="#272727"/>
</svg>
