<svg width="97" height="96" viewBox="0 0 97 96" fill="none" xmlns="http://www.w3.org/2000/svg">
    <path fill-rule="evenodd" clip-rule="evenodd"
          d="M19.7779 37.2463C20.4037 36.1655 21.558 35.5 22.8069 35.5H74.1945C75.4434 35.5 76.5978 36.1655 77.2235 37.2464L86.126 52.6234C86.3418 52.9962 86.5192 53.388 86.6564 53.7927C85.8442 52.9932 84.7297 52.5 83.5 52.5H13.502C12.2714 52.5 11.1561 52.994 10.3438 53.7944C10.4811 53.3891 10.6586 52.9967 10.8748 52.6233L19.7779 37.2463ZM9.00195 67H9V55.8802C9 54.5606 9.34819 53.2643 10.0094 52.1223L18.9125 36.7452C19.7171 35.3556 21.2011 34.5 22.8069 34.5H74.1945C75.8003 34.5 77.2844 35.3557 78.0889 36.7453L86.9914 52.1224C87.6526 53.2644 88.0007 54.5606 88.0007 55.8801V66H88V69C88 70.3807 86.8807 71.5 85.5 71.5H11.502C10.1212 71.5 9.00195 70.3807 9.00195 69V67ZM10.002 57C10.002 55.067 11.569 53.5 13.502 53.5H83.5C85.433 53.5 87 55.067 87 57V69C87 69.8284 86.3284 70.5 85.5 70.5H11.502C10.6735 70.5 10.002 69.8284 10.002 69V57Z"
          fill="#272727"/>
    <path d="M75 35V35.5H76V35H75ZM21 35V35.5H22V35H21ZM25.5 19.5H71.5V18.5H25.5V19.5ZM75 23V35H76V23H75ZM22 35V23H21V35H22ZM71.5 19.5C73.433 19.5 75 21.067 75 23H76C76 20.5147 73.9853 18.5 71.5 18.5V19.5ZM25.5 18.5C23.0147 18.5 21 20.5147 21 23H22C22 21.067 23.567 19.5 25.5 19.5V18.5Z"
          fill="#272727"/>
    <path d="M15.5 71V77H81.5V71" stroke="#272727" stroke-linejoin="round"/>
    <path d="M29.3775 31.3675C29.6497 30.5509 30.414 30 31.2749 30H44.5C45.6046 30 46.5 30.8954 46.5 32V38C46.5 39.1046 45.6046 40 44.5 40H29.2749C27.9097 40 26.9458 38.6626 27.3775 37.3675L29.3775 31.3675Z"
          fill="white" stroke="#272727"/>
    <path d="M50.5 32C50.5 30.8954 51.3954 30 52.5 30H65.7251C66.586 30 67.3503 30.5509 67.6225 31.3675L69.6225 37.3675C70.0542 38.6626 69.0903 40 67.7251 40H52.5C51.3954 40 50.5 39.1046 50.5 38V32Z"
          fill="white" stroke="#272727"/>
</svg>
