<svg width="97" height="96" viewBox="0 0 97 96" fill="none" xmlns="http://www.w3.org/2000/svg">
    <g>
        <path d="M11.4016 45.3407C11.8923 41.6476 14.0706 38.3918 17.2971 36.529L58.9453 12.4834C61.815 10.8265 65.4846 11.8098 67.1414 14.6795L87.1414 49.3206C88.7983 52.1903 87.815 55.8599 84.9453 57.5167L43.2971 81.5623C40.0706 83.4251 36.1619 83.6837 32.7181 82.2621L12.1255 73.7612C9.61045 72.7229 8.1089 70.1222 8.46728 67.4249L11.4016 45.3407Z"
              fill="#A81815"/>
        <path d="M11.4016 45.3407C11.8923 41.6476 14.0706 38.3918 17.2971 36.529L58.9453 12.4834C61.815 10.8265 65.4846 11.8098 67.1414 14.6795L87.1414 49.3206C88.7983 52.1903 87.815 55.8599 84.9453 57.5167L43.2971 81.5623C40.0706 83.4251 36.1619 83.6837 32.7181 82.2621L12.1255 73.7612C9.61045 72.7229 8.1089 70.1222 8.46728 67.4249L11.4016 45.3407Z"
              fill="#fff"/>
        <path d="M18.25 66.0002C17.1454 64.0871 17.8009 61.6407 19.7141 60.5361C21.6273 59.4316 24.0736 60.0871 25.1782 62.0002C26.2828 63.9134 25.6273 66.3598 23.7141 67.4643C21.8009 68.5689 19.3546 67.9134 18.25 66.0002Z"
              fill="#272727"/>
        <path d="M28.8438 48.3393C26.6346 44.513 27.9456 39.6203 31.772 37.4111V37.4111C35.5983 35.202 40.491 36.513 42.7002 40.3393V40.3393C44.9093 44.1657 43.5983 49.0584 39.772 51.2675V51.2675C35.9456 53.4767 31.0529 52.1657 28.8438 48.3393V48.3393Z"
              stroke="#272727" stroke-linejoin="round"/>
        <path d="M56.1563 55.6606C53.9471 51.8343 55.2581 46.9416 59.0845 44.7324V44.7324C62.9108 42.5233 67.8035 43.8343 70.0127 47.6606V47.6606C72.2218 51.487 70.9108 56.3797 67.0845 58.5888V58.5888C63.2581 60.798 58.3654 59.487 56.1563 55.6606V55.6606Z"
              stroke="#272727" stroke-linejoin="round"/>
        <path d="M55.2831 26.1436L43.5703 69.8564" stroke="#272727"/>
    </g>
</svg>
