<svg width="97" height="96" viewBox="0 0 97 96" fill="none" xmlns="http://www.w3.org/2000/svg">
    <path d="M5.5 34C5.5 33.4477 5.94772 33 6.5 33H90.4997C91.0519 33 91.4997 33.4477 91.4997 34V37C91.4997 39.2091 89.7088 41 87.4997 41H9.5C7.29086 41 5.5 39.2091 5.5 37V34Z" stroke="#272727" stroke-linejoin="round"/>
    <path d="M45.5 41L46.5 91H52.5L53.5 41" stroke="#272727" stroke-linejoin="round"/>
    <path d="M14.5 41L5.5 91H11.5L22.5 41" stroke="#272727" stroke-linejoin="round"/>
    <path d="M83.5 41L92.5 91H86.5L75.5 41" stroke="#272727" stroke-linejoin="round"/>
    <path d="M18.5 21H32.5L30.774 32.1534C30.6986 32.6408 30.279 33.0005 29.7858 33.0005H21.4802C20.9957 33.0005 20.5809 32.6532 20.4958 32.1762L18.5 21Z" stroke="#272727" stroke-linejoin="round"/>
    <path d="M25.5 20C25.5 16 25.5 10 31.5 8" stroke="#272727" stroke-linecap="round" stroke-linejoin="round"/>
    <path d="M26.5582 16.7371L26.9251 17.0769L26.5582 16.7371ZM26.5843 16.8152L26.4957 17.3073L26.5843 16.8152ZM26.9251 17.0769L30.2472 13.489L29.5134 12.8096L26.1913 16.3974L26.9251 17.0769ZM31.5301 17.1974L26.6729 16.3231L26.4957 17.3073L31.353 18.1816L31.5301 17.1974ZM33.7558 16.2751C33.2583 16.9915 32.3886 17.3519 31.5301 17.1974L31.353 18.1816C32.5966 18.4054 33.8564 17.8833 34.5772 16.8455L33.7558 16.2751ZM32.377 12.821C33.9365 13.1578 34.6596 14.9736 33.7558 16.2751L34.5772 16.8455C35.8941 14.9491 34.8342 12.3287 32.5881 11.8435L32.377 12.821ZM30.2472 13.489C30.7857 12.9074 31.5994 12.653 32.377 12.821L32.5881 11.8435C31.4679 11.6015 30.2941 11.9665 29.5134 12.8096L30.2472 13.489ZM26.1913 16.3974C25.8978 16.7145 26.0705 17.2307 26.4957 17.3073L26.6729 16.3231C27.0252 16.3865 27.1683 16.8142 26.9251 17.0769L26.1913 16.3974Z" fill="#272727"/>
    <path d="M20.5457 14.7185L20.355 15.1807L20.5457 14.7185ZM22.5061 10.3129L22.3304 10.781L22.5061 10.3129ZM25.1136 16.5234L24.6267 16.6368L25.1136 16.5234ZM25.05 16.5774L24.8593 17.0396L25.05 16.5774ZM24.6267 16.6368L23.5997 12.2275L24.5736 12.0007L25.6006 16.41L24.6267 16.6368ZM22.3304 10.781L22.1346 10.7075L22.4861 9.7713L22.6819 9.84483L22.3304 10.781ZM20.7365 14.2563L25.2407 16.1153L24.8593 17.0396L20.355 15.1807L20.7365 14.2563ZM19.5639 12.6588C19.6258 13.3685 20.078 13.9845 20.7365 14.2563L20.355 15.1807C19.3512 14.7664 18.662 13.8274 18.5677 12.7456L19.5639 12.6588ZM22.1346 10.7075C20.8208 10.2142 19.4421 11.2608 19.5639 12.6588L18.5677 12.7456C18.382 10.6146 20.4835 9.01943 22.4861 9.7713L22.1346 10.7075ZM23.5997 12.2275C23.445 11.5635 22.9687 11.0207 22.3304 10.781L22.6819 9.84483C23.6332 10.202 24.3431 11.011 24.5736 12.0007L23.5997 12.2275ZM25.6006 16.41C25.7015 16.8433 25.2705 17.2093 24.8593 17.0396L25.2407 16.1153C24.9001 15.9747 24.5431 16.2779 24.6267 16.6368L25.6006 16.41Z" fill="#272727"/>
</svg>
