<svg width="97" height="96" viewBox="0 0 97 96" fill="none" xmlns="http://www.w3.org/2000/svg">
    <path d="M5.5 57V70C5.5 70.5523 5.94771 71 6.5 71H49.5M5.5 57V51H91.5V57M5.5 57H49.5M91.5 57V70C91.5 70.5523 91.0523 71 90.5 71H49.5M91.5 57H49.5M49.5 57V71" stroke="#272727" stroke-linejoin="round"/>
    <path d="M22.5 63H30.5" stroke="#272727" stroke-linecap="round" stroke-linejoin="round"/>
    <path d="M44.5 83H52.5" stroke="#272727" stroke-linecap="round" stroke-linejoin="round"/>
    <path d="M68.5 63H76.5" stroke="#272727" stroke-linecap="round" stroke-linejoin="round"/>
    <path d="M85.5 77H11.5M85.5 77V71H11.5V77M85.5 77V89H11.5V77" stroke="#272727" stroke-linejoin="round"/>
    <path d="M25.25 43H33H48.5H64H71.75M25.25 43H17.5V11H79.5V43H71.75M25.25 43L17.5 50.75M71.75 43L79.5 50.75" stroke="#272727" stroke-linejoin="round"/>
</svg>
