<svg width="97" height="97" viewBox="0 0 97 97" fill="none" xmlns="http://www.w3.org/2000/svg">
    <path d="M47.5 11.9761H79.5C81.7092 11.9761 83.5 13.7669 83.5 15.9761V66.9758M47.5 11.9761L47.5879 66.9758M47.5 11.9761H17.5M47.5 11.9761H37.5M17.5 11.9761C15.2909 11.9761 13.5 13.7669 13.5 15.9761M17.5 11.9761H37.5M13.5 15.9761V66.976V31.9761M13.5 15.9761V21.9761M37.5 11.9761V66.9756V31.9761M37.5 11.9761V21.9761M37.5 21.9761H13.5M37.5 21.9761H25.5M37.5 21.9761V31.9761M13.5 21.9761H25.5M13.5 21.9761V31.9761M25.5 21.9761V31.9761M25.5 31.9761H13.5M25.5 31.9761H37.5" stroke="#272727"/>
    <path d="M83.4992 67.9761H9.50049C8.39576 67.9761 7.50026 68.8718 7.50049 69.9765L7.50257 79.9763H83.5017" stroke="#272727"/>
    <path d="M87.4991 45.9761H83.5V83.9761C83.5 85.0807 84.3954 85.9761 85.5 85.9761H87.4991C88.6037 85.9761 89.4991 85.0807 89.4991 83.9761V47.9761C89.4991 46.8715 88.6037 45.9761 87.4991 45.9761Z" stroke="#272727"/>
    <path d="M7.5 78.9761V83.9761C7.5 85.0806 8.39543 85.9761 9.5 85.9761H11.5C12.6046 85.9761 13.5 85.0806 13.5 83.9761V78.9761" stroke="#272727"/>
    <mask id="path-5-inside-1_1185_25139" fill="white">
        <path d="M65.122 62.4211C65.996 60.2362 67.7875 58.5469 70.02 57.8027L77.9189 55.1698C81.1565 54.0906 84.5 56.5004 84.5 59.9132V66.9761C84.5 68.0806 83.6046 68.9761 82.5 68.9761H65.4541C64.0391 68.9761 63.0716 67.547 63.5971 66.2333L65.122 62.4211Z"/>
    </mask>
    <path d="M65.122 62.4211C65.996 60.2362 67.7875 58.5469 70.02 57.8027L77.9189 55.1698C81.1565 54.0906 84.5 56.5004 84.5 59.9132V66.9761C84.5 68.0806 83.6046 68.9761 82.5 68.9761H65.4541C64.0391 68.9761 63.0716 67.547 63.5971 66.2333L65.122 62.4211Z" fill="white"/>
    <path d="M70.3362 58.7514L78.2351 56.1185L77.6026 54.2211L69.7038 56.8541L70.3362 58.7514ZM83.5 59.9132V66.9761H85.5V59.9132H83.5ZM82.5 67.9761H65.4541V69.9761H82.5V67.9761ZM64.5256 66.6047L66.0505 62.7925L64.1935 62.0497L62.6686 65.8619L64.5256 66.6047ZM65.4541 67.9761C64.7466 67.9761 64.2628 67.2615 64.5256 66.6047L62.6686 65.8619C61.8804 67.8325 63.3317 69.9761 65.4541 69.9761V67.9761ZM83.5 66.9761C83.5 67.5284 83.0523 67.9761 82.5 67.9761V69.9761C84.1569 69.9761 85.5 68.6329 85.5 66.9761H83.5ZM78.2351 56.1185C80.8252 55.2551 83.5 57.183 83.5 59.9132H85.5C85.5 55.8179 81.4878 52.926 77.6026 54.2211L78.2351 56.1185ZM69.7038 56.8541C67.1923 57.6912 65.1767 59.5917 64.1935 62.0497L66.0505 62.7925C66.8152 60.8807 68.3828 59.4026 70.3362 58.7514L69.7038 56.8541Z" fill="#272727" mask="url(#path-5-inside-1_1185_25139)"/>
</svg>
