<svg width="97" height="97" viewBox="0 0 97 97" fill="none" xmlns="http://www.w3.org/2000/svg">
    <g clip-path="url(#clip0_1219_26931)">
        <path d="M72.0774 44.8635L72.0769 24.8509M72.0774 44.8635L89.0863 54.8698M72.0774 44.8635L89.0849 34.8584M89.0863 54.8698L93.3382 52.3685L95.832 59.9521L84.8345 57.371L89.0863 54.8698ZM89.0849 34.8584L93.3371 37.36L95.4627 31.1066L84.8327 32.3569L89.0849 34.8584ZM67.832 27.3521L72.0839 24.8509L76.3357 22.3496L72.0769 15.9521L67.832 27.3521Z" stroke="white"/>
        <mask id="path-2-outside-1_1219_26931" maskUnits="userSpaceOnUse" x="-0.167969" y="30.9521" width="69" height="37" fill="black">
            <rect fill="white" x="-0.167969" y="30.9521" width="69" height="37"/>
            <path d="M17.09 46.486L26.0681 35.3137V31.9521H3.40198V36.253H19.9355L11.3008 46.931V50.3914H14.0482C19.9355 50.3914 22.5357 52.7643 22.5357 56.4225C22.5357 60.1796 19.5921 62.5524 14.4407 62.5524C10.2215 62.5524 6.3947 61.0199 4.08883 58.8448L1.83203 62.7502C4.72663 65.3702 9.5346 66.9521 14.4407 66.9521C23.1735 66.9521 27.4418 62.2064 27.4418 56.3731C27.4418 51.0341 23.9585 47.1287 17.09 46.486ZM34.814 66.5567H49.287C60.3257 66.5567 67.832 59.5369 67.832 49.2544C67.832 38.9719 60.3257 31.9521 49.287 31.9521H34.814V66.5567ZM39.7201 62.2558V36.253H48.9926C57.4802 36.253 62.9259 41.4931 62.9259 49.2544C62.9259 57.0157 57.4802 62.2558 48.9926 62.2558H39.7201Z"/>
        </mask>
        <path d="M17.09 46.486L16.3105 45.8596L15.1461 47.3085L16.9968 47.4817L17.09 46.486ZM26.0681 35.3137L26.8476 35.9401L27.0681 35.6657V35.3137H26.0681ZM26.0681 31.9521H27.0681V30.9521H26.0681V31.9521ZM3.40198 31.9521V30.9521H2.40198V31.9521H3.40198ZM3.40198 36.253H2.40198V37.253H3.40198V36.253ZM19.9355 36.253L20.7131 36.8818L22.0302 35.253H19.9355V36.253ZM11.3008 46.931L10.5232 46.3022L10.3008 46.5772V46.931H11.3008ZM11.3008 50.3914H10.3008V51.3914H11.3008V50.3914ZM4.08883 58.8448L4.77502 58.1174L3.85548 57.25L3.223 58.3445L4.08883 58.8448ZM1.83203 62.7502L0.966202 62.2498L0.561956 62.9494L1.16096 63.4916L1.83203 62.7502ZM34.814 66.5567H33.814V67.5567H34.814V66.5567ZM34.814 31.9521V30.9521H33.814V31.9521H34.814ZM39.7201 62.2558H38.7201V63.2558H39.7201V62.2558ZM39.7201 36.253V35.253H38.7201V36.253H39.7201ZM17.8695 47.1125L26.8476 35.9401L25.2886 34.6873L16.3105 45.8596L17.8695 47.1125ZM27.0681 35.3137V31.9521H25.0681V35.3137H27.0681ZM26.0681 30.9521H3.40198V32.9521H26.0681V30.9521ZM2.40198 31.9521V36.253H4.40198V31.9521H2.40198ZM3.40198 37.253H19.9355V35.253H3.40198V37.253ZM19.1579 35.6242L10.5232 46.3022L12.0784 47.5597L20.7131 36.8818L19.1579 35.6242ZM10.3008 46.931V50.3914H12.3008V46.931H10.3008ZM11.3008 51.3914H14.0482V49.3914H11.3008V51.3914ZM14.0482 51.3914C16.8808 51.3914 18.7529 51.9659 19.8957 52.8321C20.9937 53.6644 21.5357 54.8547 21.5357 56.4225H23.5357C23.5357 54.3321 22.7776 52.5069 21.1038 51.2382C19.4746 50.0033 17.1029 49.3914 14.0482 49.3914V51.3914ZM21.5357 56.4225C21.5357 58.0118 20.9276 59.2431 19.8098 60.1041C18.6605 60.9894 16.878 61.5524 14.4407 61.5524V63.5524C17.1548 63.5524 19.4199 62.929 21.0302 61.6886C22.672 60.4239 23.5357 58.5902 23.5357 56.4225H21.5357ZM14.4407 61.5524C10.4409 61.5524 6.87091 60.0944 4.77502 58.1174L3.40265 59.5722C5.91849 61.9454 10.002 63.5524 14.4407 63.5524V61.5524ZM3.223 58.3445L0.966202 62.2498L2.69786 63.2505L4.95466 59.3451L3.223 58.3445ZM1.16096 63.4916C4.28635 66.3205 9.35812 67.9521 14.4407 67.9521V65.9521C9.71108 65.9521 5.1669 64.4199 2.5031 62.0088L1.16096 63.4916ZM14.4407 67.9521C18.984 67.9521 22.4932 66.716 24.8798 64.5981C27.2752 62.4724 28.4418 59.5437 28.4418 56.3731H26.4418C26.4418 59.0358 25.4744 61.3966 23.5523 63.1021C21.6216 64.8154 18.6302 65.9521 14.4407 65.9521V67.9521ZM28.4418 56.3731C28.4418 53.4765 27.4909 50.8975 25.5476 48.9602C23.6131 47.0317 20.7849 45.8274 17.1831 45.4904L16.9968 47.4817C20.2636 47.7874 22.6113 48.857 24.1356 50.3766C25.6511 51.8874 26.4418 53.9307 26.4418 56.3731H28.4418ZM34.814 67.5567H49.287V65.5567H34.814V67.5567ZM49.287 67.5567C55.0191 67.5567 59.9122 65.7314 63.3815 62.4924C66.8564 59.2482 68.832 54.6502 68.832 49.2544H66.832C66.832 54.1411 65.0545 58.1943 62.0166 61.0305C58.9731 63.872 54.5936 65.5567 49.287 65.5567V67.5567ZM68.832 49.2544C68.832 43.8586 66.8564 39.2607 63.3815 36.0164C59.9122 32.7774 55.0191 30.9521 49.287 30.9521V32.9521C54.5936 32.9521 58.9731 34.6368 62.0166 37.4783C65.0545 40.3145 66.832 44.3677 66.832 49.2544H68.832ZM49.287 30.9521H34.814V32.9521H49.287V30.9521ZM33.814 31.9521V66.5567H35.814V31.9521H33.814ZM40.7201 62.2558V36.253H38.7201V62.2558H40.7201ZM39.7201 37.253H48.9926V35.253H39.7201V37.253ZM48.9926 37.253C53.0302 37.253 56.2524 38.4964 58.4567 40.5714C60.6558 42.6414 61.9259 45.617 61.9259 49.2544H63.9259C63.9259 45.1306 62.4732 41.6054 59.8275 39.1151C57.1871 36.6296 53.4426 35.253 48.9926 35.253V37.253ZM61.9259 49.2544C61.9259 52.8919 60.6558 55.8674 58.4567 57.9374C56.2524 60.0124 53.0302 61.2558 48.9926 61.2558V63.2558C53.4426 63.2558 57.1871 61.8792 59.8275 59.3938C62.4732 56.9034 63.9259 53.3783 63.9259 49.2544H61.9259ZM48.9926 61.2558H39.7201V63.2558H48.9926V61.2558Z" fill="white" mask="url(#path-2-outside-1_1219_26931)"/>
    </g>
    <defs>
        <clipPath id="clip0_1219_26931">
            <rect width="96" height="96" fill="white" transform="translate(0.832031 0.952148)"/>
        </clipPath>
    </defs>
</svg>
