<svg width="97" height="97" viewBox="0 0 97 97" fill="none" xmlns="http://www.w3.org/2000/svg">
    <g clip-path="url(#clip0_1219_2394)">
        <path d="M1.33203 66.4521L1.33284 78.4521H6.70774H12.0826H17.4575H22.8324H28.2073H33.5822H38.9571H44.332M1.33203 66.4521L6.70703 66.4522M1.33203 66.4521V59.4521M43.332 66.4524L38.957 66.4524M22.832 66.4523L17.457 66.4522M22.832 66.4523L28.207 66.4523M22.832 66.4523L22.8321 69.4522M33.582 66.4523L28.207 66.4523M33.582 66.4523L38.957 66.4524M33.582 66.4523L33.5821 69.4523M12.082 66.4522L6.70703 66.4522M12.082 66.4522L17.457 66.4522M12.082 66.4522L12.0822 69.4522M6.70703 66.4522L6.70712 67.9522M17.457 66.4522L17.4571 67.9522M28.207 66.4523L28.2071 67.9523M38.957 66.4524L38.957 67.9524" stroke="white" stroke-linecap="round" stroke-linejoin="round"/>
        <path d="M70.332 17.4521C55.9726 17.4521 44.332 29.9521 44.332 43.4521C44.332 49.8496 46.1737 55.2238 47.5007 58.2657C48.0293 59.4775 47.1501 60.9521 45.8281 60.9521C44.9727 60.9521 44.2503 61.5876 44.1412 62.436L42.082 78.4521H70.332H96.332V62.1934C96.332 61.3812 96.1113 60.5843 95.6934 59.8878C95.1379 58.9619 94.9354 57.8667 95.123 56.8034L95.7507 53.2463C96.1375 51.0544 96.332 48.8329 96.332 46.6071V43.4521C96.332 29.0927 84.6914 17.4521 70.332 17.4521Z" stroke="white" stroke-linecap="round" stroke-linejoin="round"/>
        <path d="M70.332 31.4521C63.7046 31.4521 58.332 36.9862 58.332 43.8128V56.4521C58.332 58.6613 60.1229 60.4521 62.332 60.4521H70.332H78.332C80.5412 60.4521 82.332 58.6613 82.332 56.4521V43.8128C82.332 36.9862 76.9594 31.4521 70.332 31.4521Z" stroke="white" stroke-linecap="round" stroke-linejoin="round"/>
        <path d="M51.5756 25.1541C50.2126 23.9379 48.1506 24.0246 46.9699 25.3478C45.7892 26.671 45.9369 28.7296 47.2999 29.9458L47.9521 30.5278" stroke="white" stroke-linecap="round" stroke-linejoin="round"/>
        <path d="M78.332 72.4521H70.332H62.332C60.1229 72.4521 58.332 70.6613 58.332 68.4521C58.332 66.243 60.1229 64.4521 62.332 64.4521H78.332C80.5412 64.4521 82.332 66.243 82.332 68.4521C82.332 70.6613 80.5412 72.4521 78.332 72.4521Z" stroke="white" stroke-linecap="round" stroke-linejoin="round"/>
        <path d="M74.332 37.4521L74.832 37.4521C74.832 37.176 74.6082 36.9521 74.332 36.9521L74.332 37.4521ZM66.332 37.4521L66.332 36.9521C66.0559 36.9521 65.832 37.176 65.832 37.4521L66.332 37.4521ZM66.332 53.4521L65.832 53.4521C65.832 53.7283 66.0559 53.9521 66.332 53.9521V53.4521ZM74.332 53.4521V53.9521C74.4646 53.9521 74.5918 53.8995 74.6856 53.8057C74.7794 53.7119 74.832 53.5848 74.832 53.4521L74.332 53.4521ZM74.332 36.9521L66.332 36.9521L66.332 37.9521L74.332 37.9521L74.332 36.9521ZM66.332 53.9521H74.332V52.9521H66.332V53.9521ZM65.832 37.4521L65.832 53.4521L66.832 53.4521L66.832 37.4521L65.832 37.4521ZM74.832 53.4521L74.832 37.4521L73.832 37.4521L73.832 53.4521L74.832 53.4521Z" fill="white"/>
        <path d="M74.332 37.4521H74.832C74.832 37.3195 74.7794 37.1924 74.6856 37.0986C74.5918 37.0048 74.4646 36.9521 74.332 36.9521L74.332 37.4521ZM66.332 37.4521L66.332 36.9521C66.0559 36.9521 65.832 37.176 65.832 37.4521L66.332 37.4521ZM66.332 43.4521L65.832 43.4521C65.832 43.5848 65.8847 43.7119 65.9785 43.8057C66.0722 43.8995 66.1994 43.9521 66.332 43.9521L66.332 43.4521ZM74.332 43.4521L74.332 43.9521C74.6082 43.9521 74.832 43.7283 74.832 43.4521H74.332ZM74.332 36.9521L66.332 36.9521L66.332 37.9521L74.332 37.9521L74.332 36.9521ZM66.332 43.9521L74.332 43.9521L74.332 42.9521L66.332 42.9521L66.332 43.9521ZM65.832 37.4521L65.832 43.4521L66.832 43.4521L66.832 37.4521L65.832 37.4521ZM74.832 43.4521V37.4521H73.832V43.4521H74.832Z" fill="white"/>
    </g>
    <defs>
        <clipPath id="clip0_1219_2394">
            <rect width="96" height="96" fill="white" transform="translate(0.832031 0.952148)"/>
        </clipPath>
    </defs>
</svg>
