<svg width="97" height="97" viewBox="0 0 97 97" fill="none" xmlns="http://www.w3.org/2000/svg">
    <path d="M35.5981 30.479C35.4028 30.2838 35.0863 30.2838 34.891 30.479C34.6957 30.6743 34.6957 30.9909 34.891 31.1862L35.5981 30.479ZM30.2286 35.8486C30.0333 35.6533 29.7167 35.6533 29.5214 35.8486C29.3262 36.0439 29.3262 36.3604 29.5214 36.5557L30.2286 35.8486ZM61.0937 68.128C61.289 68.3232 61.6055 68.3232 61.8008 68.128C61.9961 67.9327 61.9961 67.6161 61.8008 67.4208L61.0937 68.128ZM66.4632 62.7584C66.6585 62.9537 66.9751 62.9537 67.1704 62.7584C67.3656 62.5631 67.3656 62.2466 67.1704 62.0513L66.4632 62.7584ZM39.3092 46.3435C39.5045 46.5388 39.8211 46.5388 40.0163 46.3435C40.2116 46.1482 40.2116 45.8317 40.0163 45.6364L39.3092 46.3435ZM51.5158 57.1358C51.3205 56.9405 51.0039 56.9405 50.8087 57.1358C50.6134 57.3311 50.6134 57.6477 50.8087 57.8429L51.5158 57.1358ZM67.1704 62.0513L35.5981 30.479L34.891 31.1862L66.4632 62.7584L67.1704 62.0513ZM29.5214 36.5557L39.3092 46.3435L40.0163 45.6364L30.2286 35.8486L29.5214 36.5557ZM50.8087 57.8429L61.0937 68.128L61.8008 67.4208L51.5158 57.1358L50.8087 57.8429Z" fill="white"/>
    <path d="M72.1158 27.8726C72.311 27.6773 72.311 27.3608 72.1158 27.1655C71.9205 26.9702 71.6039 26.9702 71.4087 27.1655L72.1158 27.8726ZM69.9864 25.7432C70.1816 25.5479 70.1816 25.2314 69.9864 25.0361C69.7911 24.8408 69.4745 24.8408 69.2793 25.0361L69.9864 25.7432ZM49.5093 44.806C49.3141 45.0013 49.3141 45.3179 49.5093 45.5131C49.7046 45.7084 50.0212 45.7084 50.2164 45.5131L49.5093 44.806ZM51.6387 46.9354C51.4435 47.1307 51.4435 47.4473 51.6387 47.6425C51.834 47.8378 52.1506 47.8378 52.3458 47.6425L51.6387 46.9354ZM69.2793 25.0361L49.5093 44.806L50.2164 45.5131L69.9864 25.7432L69.2793 25.0361ZM52.3458 47.6425L72.1158 27.8726L71.4087 27.1655L51.6387 46.9354L52.3458 47.6425Z" fill="white"/>
    <path d="M28.8151 21.0585L29.2982 21.1873C29.3443 21.0146 29.2946 20.8304 29.168 20.7042L28.8151 21.0585ZM27.0343 27.7364L27.1631 28.2196C27.3361 28.1734 27.4713 28.0383 27.5174 27.8653L27.0343 27.7364ZM20.3563 29.5172L20.0024 29.8705C20.1286 29.9969 20.3126 30.0464 20.4851 30.0004L20.3563 29.5172ZM21.7952 14.0648L21.6729 13.58C21.4982 13.624 21.3608 13.7586 21.313 13.9323C21.2653 14.106 21.3147 14.2919 21.4423 14.419L21.7952 14.0648ZM13.3601 22.5075L13.714 22.1543C13.5867 22.0268 13.4008 21.9776 13.2271 22.0255C13.0535 22.0734 12.9191 22.211 12.8752 22.3856L13.3601 22.5075ZM16.0658 33.9474C20.8098 38.6914 28.5013 38.6914 33.2453 33.9474L32.5382 33.2403C28.1847 37.5938 21.1264 37.5938 16.7729 33.2403L16.0658 33.9474ZM33.2453 33.9474C37.9893 29.2034 37.9893 21.5119 33.2453 16.7679L32.5382 17.4751C36.8916 21.8285 36.8916 28.8869 32.5382 33.2403L33.2453 33.9474ZM28.332 20.9296L26.5512 27.6076L27.5174 27.8653L29.2982 21.1873L28.332 20.9296ZM26.9055 27.2533L20.2275 29.0341L20.4851 30.0004L27.1631 28.2196L26.9055 27.2533ZM33.2453 16.7679C30.1079 13.6306 25.6815 12.5687 21.6729 13.58L21.9175 14.5496C25.599 13.6208 29.6599 14.5967 32.5382 17.4751L33.2453 16.7679ZM16.7729 33.2403C13.8971 30.3645 12.9204 26.3083 13.845 22.6294L12.8752 22.3856C11.8684 26.3915 12.9312 30.8128 16.0658 33.9474L16.7729 33.2403ZM20.7102 29.164L13.714 22.1543L13.0062 22.8607L20.0024 29.8705L20.7102 29.164ZM21.4423 14.419L28.4622 21.4127L29.168 20.7042L22.1481 13.7106L21.4423 14.419Z" fill="white"/>
    <path d="M72.0501 65.8261L72.3006 65.3933C72.1456 65.3036 71.9545 65.3036 71.7995 65.3933L72.0501 65.8261ZM78.0313 69.2889H78.5313C78.5313 69.1105 78.4363 68.9456 78.2818 68.8562L78.0313 69.2889ZM78.0313 76.2146L78.2818 76.6473C78.4363 76.5579 78.5313 76.393 78.5313 76.2146H78.0313ZM72.0501 79.6774L71.7995 80.1101C71.9545 80.1998 72.1456 80.1998 72.3006 80.1101L72.0501 79.6774ZM66.0688 76.2146H65.5688C65.5688 76.393 65.6639 76.5579 65.8183 76.6473L66.0688 76.2146ZM66.0688 69.2889L65.8183 68.8562C65.6639 68.9456 65.5688 69.1105 65.5688 69.2889H66.0688ZM59.9023 72.7517C59.9023 79.4607 65.3411 84.8995 72.0501 84.8995V83.8995C65.8933 83.8995 60.9023 78.9084 60.9023 72.7517H59.9023ZM72.0501 84.8995C78.7591 84.8995 84.1978 79.4607 84.1978 72.7517H83.1978C83.1978 78.9084 78.2068 83.8995 72.0501 83.8995V84.8995ZM60.9023 72.7517C60.9023 66.595 65.8933 61.604 72.0501 61.604V60.604C65.3411 60.604 59.9023 66.0427 59.9023 72.7517H60.9023ZM84.1978 72.7517C84.1978 66.0427 78.7591 60.604 72.0501 60.604V61.604C78.2068 61.604 83.1978 66.595 83.1978 72.7517H84.1978ZM71.7995 66.2588L77.7808 69.7216L78.2818 68.8562L72.3006 65.3933L71.7995 66.2588ZM77.5313 69.2889V76.2146H78.5313V69.2889H77.5313ZM77.7808 75.7819L71.7995 79.2447L72.3006 80.1101L78.2818 76.6473L77.7808 75.7819ZM72.3006 79.2447L66.3193 75.7819L65.8183 76.6473L71.7995 80.1101L72.3006 79.2447ZM66.5688 76.2146V69.2889H65.5688V76.2146H66.5688ZM66.3193 69.7216L72.3006 66.2588L71.7995 65.3933L65.8183 68.8562L66.3193 69.7216Z" fill="white"/>
    <path d="M32.5167 59.7286C32.712 59.5333 33.0285 59.5333 33.2238 59.7286C33.4191 59.9239 33.4191 60.2404 33.2238 60.4357L32.5167 59.7286ZM36.4199 63.6318C36.6151 63.4365 36.9317 63.4365 37.127 63.6318C37.3223 63.8271 37.3223 64.1436 37.127 64.3389L36.4199 63.6318ZM27.7921 73.6738C27.5968 73.8691 27.2802 73.8691 27.085 73.6738C26.8897 73.4786 26.8897 73.162 27.085 72.9667L27.7921 73.6738ZM23.8889 69.7706C23.6936 69.9659 23.377 69.9659 23.1818 69.7706C22.9865 69.5754 22.9865 69.2588 23.1818 69.0635L23.8889 69.7706ZM37.127 64.3389L27.7921 73.6738L27.085 72.9667L36.4199 63.6318L37.127 64.3389ZM23.1818 69.0635L32.5167 59.7286L33.2238 60.4357L23.8889 69.7706L23.1818 69.0635Z" fill="white"/>
    <path d="M84.5 17.3367L84.8536 16.9831C85.0208 17.1503 85.048 17.4119 84.9187 17.6099L84.5 17.3367ZM80.0701 12.9067L79.7968 12.488C79.9949 12.3588 80.2564 12.386 80.4236 12.5532L80.0701 12.9067ZM73.2582 17.3523L73.5315 17.771L73.2582 17.3523ZM76.0842 28.4913C74.1384 28.9795 71.9901 28.4632 70.4668 26.9399L71.174 26.2328C72.4385 27.4973 74.2219 27.9276 75.8408 27.5213L76.0842 28.4913ZM70.4668 26.9399C68.9436 25.4166 68.4272 23.2683 68.9155 21.3225L69.8854 21.5659C69.4792 23.1849 69.9094 24.9683 71.174 26.2328L70.4668 26.9399ZM79.6357 23.8753L84.0813 17.0634L84.9187 17.6099L80.4732 24.4218L79.6357 23.8753ZM84.1464 17.6902L79.7165 13.2603L80.4236 12.5532L84.8536 16.9831L84.1464 17.6902ZM72.9849 16.9336L79.7968 12.488L80.3433 13.3255L73.5315 17.771L72.9849 16.9336ZM68.9155 21.3225C69.1824 20.259 69.8119 19.4209 70.557 18.7254C71.297 18.0347 72.1813 17.4581 72.9849 16.9336L73.5315 17.771C72.7143 18.3043 71.9052 18.835 71.2393 19.4565C70.5785 20.0733 70.0896 20.7523 69.8854 21.5659L68.9155 21.3225ZM75.8408 27.5213C76.6545 27.3172 77.3335 26.8282 77.9502 26.1674C78.5717 25.5016 79.1024 24.6924 79.6357 23.8753L80.4732 24.4218C79.9487 25.2255 79.372 26.1097 78.6813 26.8497C77.9859 27.5948 77.1478 28.2244 76.0842 28.4913L75.8408 27.5213Z" fill="white"/>
    <path d="M29.519 78.8204L29.8996 79.1445C29.891 79.1547 29.8819 79.1645 29.8725 79.1739L29.519 78.8204ZM18.2159 67.5173L17.8623 67.1638C17.8718 67.1543 17.8816 67.1453 17.8917 67.1366L18.2159 67.5173ZM31.8723 55.8892L32.1965 56.2699L31.8723 55.8892ZM29.8725 79.1739C26.575 82.4714 21.2151 82.4496 17.9009 79.1354L18.608 78.4283C21.5363 81.3566 26.263 81.3693 29.1654 78.4668L29.8725 79.1739ZM17.9009 79.1354C14.5866 75.8212 14.5648 70.4613 17.8623 67.1638L18.5694 67.8709C15.667 70.7733 15.6797 75.5 18.608 78.4283L17.9009 79.1354ZM17.8917 67.1366L31.5482 55.5085L32.1965 56.2699L18.54 67.898L17.8917 67.1366ZM29.1383 78.4962L40.7663 64.8398L41.5277 65.4881L29.8996 79.1445L29.1383 78.4962ZM40.7663 64.8398C45.2722 59.548 51.1036 55.5489 57.6634 53.252L57.9938 54.1958C51.6014 56.4341 45.9187 60.3313 41.5277 65.4881L40.7663 64.8398ZM31.5482 55.5085C36.7051 51.1175 40.6023 45.4348 42.8406 39.0423L43.7844 39.3728C41.4875 45.9325 37.4883 51.764 32.1965 56.2699L31.5482 55.5085Z" fill="white"/>
</svg>
