<svg width="97" height="97" viewBox="0 0 97 97" fill="none" xmlns="http://www.w3.org/2000/svg">
    <g clip-path="url(#clip0_1219_2412)">
        <path d="M31.668 65.4521H49.7002C58.2568 65.4521 65.4798 59.0926 66.5634 50.6049L70.668 18.4522L7.66797 18.4521L1.66796 65.4521L14.168 65.4521" stroke="white"/>
        <path d="M64.668 68.4521L31.668 68.4521M10.6679 65.4521L10.1679 68.4521H14.6679" stroke="white"/>
        <path d="M81.668 68.4521L90.668 68.4521L91.168 65.4521L88.168 65.4521" stroke="white"/>
        <path d="M47.668 49.4521L7.66797 49.4521" stroke="white"/>
        <path d="M80.668 49.4521H66.668" stroke="white"/>
        <path d="M23.168 57.4521H2.16797" stroke="white"/>
        <path d="M87.168 57.4521H73.168" stroke="white"/>
        <path d="M50.668 34.4521L9.66797 34.4521" stroke="white"/>
        <path d="M93.668 65.4521L94.1662 65.4937L94.128 65.9521L93.668 65.9521L93.668 65.4521ZM95.1337 47.8639L95.6319 47.9055L95.1337 47.8639ZM78.1924 29.9522L69.335 29.9522L69.335 28.9522L78.1924 28.9522L78.1924 29.9522ZM93.1697 65.4106L94.6354 47.8224L95.6319 47.9055L94.1662 65.4937L93.1697 65.4106ZM64.835 65.9521L47.335 65.9521L47.335 64.9521L64.835 64.9521L64.835 65.9521ZM93.668 65.9521L82.0847 65.9521L82.0847 64.9521L93.668 64.9521L93.668 65.9521ZM78.1924 28.9522C88.4306 28.9521 96.4822 37.7026 95.6319 47.9055L94.6354 47.8224C95.437 38.2026 87.8455 29.9521 78.1924 29.9522L78.1924 28.9522Z" fill="white"/>
        <circle cx="23.168" cy="65.9521" r="8.5" stroke="white"/>
        <circle cx="23.168" cy="65.9521" r="2.5" stroke="white"/>
        <circle cx="73.168" cy="65.9521" r="2.5" stroke="white"/>
        <circle cx="73.168" cy="65.9521" r="8.5" stroke="white"/>
    </g>
    <defs>
        <clipPath id="clip0_1219_2412">
            <rect width="96" height="96" fill="white" transform="translate(0.167969 0.952148)"/>
        </clipPath>
    </defs>
</svg>
