<svg width="97" height="97" viewBox="0 0 97 97" fill="none" xmlns="http://www.w3.org/2000/svg">
    <path d="M11.6689 46.4521L11.668 25.4521L59.6689 25.4526V46.4521M11.6689 46.4521L11.6687 56.4521M11.6689 46.4521H23.6689M59.6689 46.4521L59.6687 56.4521M59.6689 46.4521H47.6689M11.6684 66.4521L11.6682 76.4521M11.6684 66.4521L11.6687 56.4521M11.6684 66.4521H47.6684M59.6684 66.4521L59.6682 76.4521L59.668 86.4521H47.668M59.6684 66.4521L59.6687 56.4521M59.6684 66.4521H47.6684M11.6682 76.4521L11.668 86.4521H23.668M11.6682 76.4521H47.6682M11.6687 56.4521H59.6687M35.6689 46.4521L35.668 86.4521M35.6689 46.4521H23.6689M35.6689 46.4521H47.6689M35.668 86.4521H23.668M35.668 86.4521H47.668M23.6689 46.4521L23.668 86.4521M47.6689 46.4521L47.6684 66.4521M47.668 86.4521L47.6682 76.4521M47.6682 76.4521L47.6684 66.4521" stroke="white" stroke-linecap="round" stroke-linejoin="round"/>
    <path d="M55.4177 77.4521H52.168" stroke="white" stroke-linecap="round" stroke-linejoin="round"/>
    <path d="M55.4177 75.4521H52.168" stroke="white" stroke-linecap="round" stroke-linejoin="round"/>
    <path d="M53.4182 31.9522L51.1682 40.5771" stroke="white" stroke-linecap="round" stroke-linejoin="round"/>
    <path d="M47.4182 31.9522L45.1682 40.5771" stroke="white" stroke-linecap="round" stroke-linejoin="round"/>
    <path d="M35.6689 25.4521L35.668 11.4521L84.668 11.4526V33.818L84.6673 61.4528M73.668 72.4521L73.6677 61.4528H84.6673M73.668 72.4521L84.6673 61.4528M73.668 72.4521H59.668" stroke="white" stroke-linecap="round" stroke-linejoin="round"/>
    <path d="M67.668 28.4521H72.668C75.4294 28.4521 77.668 26.2136 77.668 23.4521V23.4521C77.668 20.6907 75.4294 18.4521 72.668 18.4521H67.668V28.4521ZM67.668 28.4521V34.4521M67.668 28.4521H66.168M66.168 31.4521H75.668" stroke="white" stroke-linecap="round" stroke-linejoin="round"/>
    <path d="M66.168 39.4521H75.668" stroke="white" stroke-linecap="round" stroke-linejoin="round"/>
    <path d="M66.168 42.4521H75.668" stroke="white" stroke-linecap="round" stroke-linejoin="round"/>
    <path d="M66.168 45.4521H75.668" stroke="white" stroke-linecap="round" stroke-linejoin="round"/>
    <path d="M66.168 48.4521H75.668" stroke="white" stroke-linecap="round" stroke-linejoin="round"/>
    <path d="M66.168 51.4521H75.668" stroke="white" stroke-linecap="round" stroke-linejoin="round"/>
</svg>
