<svg xmlns="http://www.w3.org/2000/svg" display="none">

    <symbol id="icon-category1" viewBox="0 0 32 33">
        <path d="M2.5 13.25V30.25H29.5V13.25M2.5 13.25L16 3.25L29.5 13.25M2.5 13.25H29.5"
              stroke-linejoin="round"/>
        <path d="M17 20.25H8.5V29.75M17 13.25V29.75" stroke-linejoin="round"/>
    </symbol>

    <symbol id="icon-category2" viewBox="0 0 32 33">
        <path d="M17.5 24.25V17.25V10.25V4.25M17.5 24.25H10.5M17.5 24.25V30.25M17.5 24.25H28.5M3.5 24.25V17.25V10.25V4.25H17.5M3.5 24.25H10.5M3.5 24.25V30.25H17.5M10.5 4.25V24.25M17.5 4.25H28.5V10.25V24.25M17.5 30.25H28.5V24.25"
              stroke-linecap="round" stroke-linejoin="round"/>
        <path d="M25.5 15.25V18.25" stroke-linecap="round" stroke-linejoin="round"/>
    </symbol>

    <symbol id="icon-category3" viewBox="0 0 32 33">
        <g>
            <path d="M8.5 15.75V27.75H27.5V15.75M8.5 15.75V8.75H27.5V15.75M8.5 15.75H27.5"
                  stroke-linecap="round" stroke-linejoin="round"/>
            <path d="M8.5 3.75L27.5 3.75M8.5 3.75L8.5 1.25M8.5 3.75L8.5 6.25M27.5 3.75L27.5 1.25M27.5 3.75L27.5 6.25"
                  stroke-linecap="round" stroke-linejoin="round"/>
            <path d="M3.5 27.75L3.5 8.75M3.5 27.75L1 27.75M3.5 27.75L6 27.75M3.5 8.75L1 8.75M3.5 8.75L6 8.75"
                  stroke-linecap="round" stroke-linejoin="round"/>
        </g>
    </symbol>

    <symbol id="icon-category4" viewBox="0 0 32 33">
        <g>
            <path d="M11 9.33042L20.4737 3.75L29 9.47727M11 9.33042V19.0227L19.5263 24.75M11 9.33042L19.5263 15.0577M29 9.47727V19.1696L19.5263 24.75M29 9.47727L19.5263 15.0577M19.5263 24.75V15.0577"
                  stroke-linecap="round" stroke-linejoin="round"/>
            <path d="M3.5 6.75L3.50002 29.25M3.50002 29.25L26.5 29.25M3.50002 29.25L12 23.75"
                  stroke-linecap="round" stroke-linejoin="round"/>
            <path d="M6.5 9.25L3.5 6.25L0.5 9.25" stroke-linecap="round" stroke-linejoin="round"/>
            <path d="M24 32.25L27 29.25L24 26.25" stroke-linecap="round" stroke-linejoin="round"/>
        </g>
    </symbol>

    <symbol id="icon-category5" viewBox="0 0 32 33">
        <mask maskUnits="userSpaceOnUse" x="3" y="8.75" width="26" height="16"
              fill="black">
            <rect fill="white" x="3" y="8.75" width="26" height="16"/>
            <path fill-rule="evenodd" clip-rule="evenodd"
                  d="M4 16.75C4 12.884 7.13401 9.75 11 9.75H28V13.75H11C10.1115 13.75 9.31321 14.1363 8.76389 14.75L28 14.75V18.75L8 18.75V19.75L28 19.75V23.75L6 23.75H4V21.75V16.75Z"/>
        </mask>
        <path d="M28 9.75H29V8.75H28V9.75ZM28 13.75V14.75H29V13.75H28ZM8.76389 14.75L8.01876 14.0831L6.52683 15.75H8.76389V14.75ZM28 14.75H29V13.75H28V14.75ZM28 18.75V19.75H29V18.75H28ZM8 18.75V17.75H7V18.75H8ZM8 19.75H7V20.75H8V19.75ZM28 19.75H29V18.75H28V19.75ZM28 23.75V24.75H29V23.75H28ZM6 23.75V22.75V23.75ZM4 23.75H3V24.75H4V23.75ZM11 8.75C6.58172 8.75 3 12.3317 3 16.75H5C5 13.4363 7.68629 10.75 11 10.75V8.75ZM28 8.75H11V10.75H28V8.75ZM29 13.75V9.75H27V13.75H29ZM11 14.75H28V12.75H11V14.75ZM9.50903 15.4169C9.87667 15.0062 10.4078 14.75 11 14.75V12.75C9.81524 12.75 8.74975 13.2664 8.01876 14.0831L9.50903 15.4169ZM28 13.75L8.76389 13.75V15.75L28 15.75V13.75ZM29 18.75V14.75H27V18.75H29ZM8 19.75L28 19.75V17.75L8 17.75V19.75ZM9 19.75V18.75H7V19.75H9ZM28 18.75L8 18.75V20.75L28 20.75V18.75ZM29 23.75V19.75H27V23.75H29ZM6 24.75L28 24.75V22.75L6 22.75V24.75ZM4 24.75H6V22.75H4V24.75ZM3 21.75V23.75H5V21.75H3ZM3 16.75V21.75H5V16.75H3Z"
        />
    </symbol>

    <symbol id="icon-category6" viewBox="0 0 32 32">
        <path d="M18 11C18 12.1046 17.1046 13 16 13C14.8954 13 14 12.1046 14 11C14 9.89543 14.8954 9 16 9C17.1046 9 18 9.89543 18 11Z"/>
        <mask id="path-2-inside-1_106_2857" fill="white">
            <path d="M14.5 15H18.5L17.2512 19.683C16.9778 20.7082 18.0901 21.5459 19 21L18.7727 21.8335C18.2056 23.9128 15.6038 24.6038 14.0798 23.0798C13.4065 22.4065 13.1205 21.4378 13.32 20.5068L14.5 15Z"/>
        </mask>
        <path d="M14.5 15V14H13.6916L13.5222 14.7905L14.5 15ZM18.5 15L19.4662 15.2577L19.8016 14H18.5V15ZM14.5 16H18.5V14H14.5V16ZM14.2978 20.7164L15.4778 15.2095L13.5222 14.7905L12.3422 20.2973L14.2978 20.7164ZM17.5338 14.7423L16.285 19.4253L18.2174 19.9406L19.4662 15.2577L17.5338 14.7423ZM18.0352 20.7369L17.8079 21.5704L19.7374 22.0967L19.9648 21.2631L18.0352 20.7369ZM17.8079 21.5704C17.4429 22.909 15.768 23.3537 14.7869 22.3727L13.3727 23.7869C15.4396 25.8538 18.9683 24.9167 19.7374 22.0967L17.8079 21.5704ZM16.285 19.4253C15.7801 21.3187 17.8342 22.8657 19.5145 21.8575L18.4855 20.1425C18.4382 20.1709 18.4054 20.1735 18.3822 20.1717C18.3533 20.1695 18.3176 20.1576 18.2835 20.1319C18.2493 20.1062 18.228 20.0751 18.2179 20.048C18.2097 20.0262 18.2032 19.994 18.2174 19.9406L16.285 19.4253ZM12.3422 20.2973C12.0716 21.56 12.4596 22.8738 13.3727 23.7869L14.7869 22.3727C14.3535 21.9393 14.1693 21.3157 14.2978 20.7164L12.3422 20.2973Z"
              fill="#272727" mask="url(#path-2-inside-1_106_2857)" class="stroke-none"/>
        <rect x="12" y="15" width="6" height="1" fill="#272727"/>
        <circle cx="16" cy="16" r="13"/>
    </symbol>


    <symbol id="icon-category7" viewBox="0 0 32 33">
        <g>
            <path d="M19.0469 3.22468L30.0107 14.1886L25.1733 19.026L14.2094 8.06214L19.0469 3.22468Z" fill="#F6F6F6"
            />
            <path d="M11.3125 5.14461L0.705898 15.7512L14.1973 29.2427C15.1737 30.219 16.7566 30.219 17.7329 29.2427L24.8039 22.1716C25.7803 21.1953 25.7803 19.6124 24.8039 18.6361L11.3125 5.14461Z"
                  fill="#F6F6F6"/>
            <path d="M15 24.5801L18.8571 28.4372"/>
            <path d="M17.5703 22.0088L21.4275 25.8659"/>
            <path d="M20.1406 19.4375L23.9978 23.2946"/>
        </g>
    </symbol>


    <symbol id="icon-submenu1" viewBox="0 0 48 49">
        <g>
            <path d="M5.45081 23.1704C5.69616 21.3238 6.78529 19.6959 8.39853 18.7645L29.2226 6.7417C30.6575 5.91327 32.4923 6.4049 33.3207 7.83978L43.3207 25.1603C44.1491 26.5952 43.6575 28.4299 42.2226 29.2584L21.3985 41.2812C19.7853 42.2126 17.8309 42.3418 16.1091 41.631L5.81277 37.3806C4.55522 36.8615 3.80445 35.5611 3.98364 34.2124L5.45081 23.1704Z"
            />
            <path d="M8.875 33.5001C8.32272 32.5435 8.65047 31.3204 9.60705 30.7681V30.7681C10.5636 30.2158 11.7868 30.5435 12.3391 31.5001V31.5001C12.8914 32.4567 12.5636 33.6799 11.6071 34.2322V34.2322C10.6505 34.7845 9.42728 34.4567 8.875 33.5001V33.5001Z"
                  stroke-linejoin="round"/>
            <path d="M14.1719 24.6697C13.0673 22.7565 13.7228 20.3101 15.636 19.2056V19.2056C17.5491 18.101 19.9955 18.7565 21.1001 20.6697V20.6697C22.2046 22.5828 21.5491 25.0292 19.636 26.1338V26.1338C17.7228 27.2383 15.2764 26.5828 14.1719 24.6697V24.6697Z"
                  stroke-linejoin="round"/>
            <path d="M27.8281 28.3303C26.7236 26.4171 27.3791 23.9708 29.2922 22.8662V22.8662C31.2054 21.7616 33.6518 22.4171 34.7563 24.3303V24.3303C35.8609 26.2435 35.2054 28.6898 33.2922 29.7944V29.7944C31.3791 30.899 28.9327 30.2435 27.8281 28.3303V28.3303Z"
                  stroke-linejoin="round"/>
            <path d="M27.3916 13.5718L21.5352 35.4282"/>
            <path d="M5 28.5601C2.71776 28.838 1 30.0487 1 31.5C1 33.1569 3.23858 34.5 6 34.5C8.76142 34.5 11 33.1569 11 31.5C11 31.2255 10.9385 30.9595 10.8233 30.7068"
                  stroke-linejoin="round"/>
        </g>
    </symbol>

    <symbol id="icon-submenu2" viewBox="0 0 48 49">
        <path d="M27.3918 6.43705L27.5688 6.55865L27.7788 6.51404L31.8042 5.659L34.046 9.10998L34.163 9.29006L34.3741 9.32922L38.4203 10.0797L39.1708 14.1259L39.2099 14.337L39.39 14.454L42.841 16.6958L41.986 20.7212L41.9413 20.9312L42.063 21.1082L44.3934 24.5L42.063 27.8918L41.9413 28.0688L41.986 28.2788L42.841 32.3042L39.39 34.546L39.2099 34.663L39.1708 34.8741L38.4203 38.9203L34.3741 39.6708L34.163 39.7099L34.046 39.89L31.8042 43.341L27.7788 42.486L27.5688 42.4413L27.3918 42.563L24 44.8934L20.6082 42.563L20.4312 42.4413L20.2212 42.486L16.1958 43.341L13.954 39.89L13.837 39.7099L13.6259 39.6708L9.57972 38.9203L8.82922 34.8741L8.79006 34.663L8.60998 34.546L5.159 32.3042L6.01404 28.2788L6.05865 28.0688L5.93705 27.8918L3.60665 24.5L5.93705 21.1082L6.05865 20.9312L6.01404 20.7212L5.159 16.6958L8.60998 14.454L8.79006 14.337L8.82922 14.1259L9.57972 10.0797L13.6259 9.32922L13.837 9.29006L13.954 9.10998L16.1958 5.659L20.2212 6.51404L20.4312 6.55865L20.6082 6.43705L24 4.10665L27.3918 6.43705Z"/>
        <path d="M19.8788 14.5H32L26.6667 24.9762H32L17.9394 36.5L21.8182 24.9762H16L19.8788 14.5Z"/>
        <path d="M8.9992 20.4804L12.7494 21.4852M39.0006 28.5192L35.2504 27.5144"/>
        <path d="M10.5501 16.735L13.9124 18.6763M37.4485 32.2649L34.0862 30.3237"/>
    </symbol>

    <symbol id="icon-submenu3" viewBox="0 0 48 49">
        <path fill-rule="evenodd" clip-rule="evenodd"
              d="M9.27755 20.2463C9.90332 19.1655 11.0576 18.5 12.3065 18.5H35.6941C36.9431 18.5 38.0974 19.1655 38.7231 20.2464L42.1256 26.1234C42.4647 26.709 42.7087 27.3414 42.8515 27.997C42.0276 27.0781 40.8313 26.5 39.5 26.5H8.50098C7.16924 26.5 5.97261 27.0785 5.14869 27.9979C5.29147 27.3419 5.53562 26.7092 5.87482 26.1233L9.27755 20.2463ZM4.00098 34H4V29.3802C4 28.0606 4.34819 26.7643 5.00941 25.6223L8.41214 19.7452C9.2167 18.3556 10.7008 17.5 12.3065 17.5H35.6941C37.2999 17.5 38.784 18.3557 39.5886 19.7453L42.9911 25.6224C43.6522 26.7644 44.0004 28.0606 44.0004 29.3801V33.5H44V34C44 35.3807 42.8807 36.5 41.5 36.5H6.50098C5.12027 36.5 4.00098 35.3807 4.00098 34ZM5.00098 31C5.00098 29.067 6.56798 27.5 8.50098 27.5H39.5C41.433 27.5 43 29.067 43 31V34C43 34.8284 42.3284 35.5 41.5 35.5H6.50098C5.67255 35.5 5.00098 34.8284 5.00098 34V31Z"
              fill="#272727"/>
        <path d="M37 18V18.5H38V18H37ZM10 18V18.5H11V18H10ZM14.5 10.5H33.5V9.5H14.5V10.5ZM37 14V18H38V14H37ZM11 18V14H10V18H11ZM33.5 10.5C35.433 10.5 37 12.067 37 14H38C38 11.5147 35.9853 9.5 33.5 9.5V10.5ZM14.5 9.5C12.0147 9.5 10 11.5147 10 14H11C11 12.067 12.567 10.5 14.5 10.5V9.5Z"
              fill="#272727"/>
        <path d="M7.5 36V39H40.5V36" stroke-linejoin="round"/>
        <path d="M14.2108 16.8675C14.483 16.0509 15.2473 15.5 16.1082 15.5H21C22.1046 15.5 23 16.3954 23 17.5V18.5C23 19.6046 22.1046 20.5 21 20.5H15.7749C14.4097 20.5 13.4458 19.1626 13.8775 17.8675L14.2108 16.8675Z"
              fill="white"/>
        <path d="M25 17.5C25 16.3954 25.8954 15.5 27 15.5H31.8918C32.7527 15.5 33.517 16.0509 33.7892 16.8675L34.1225 17.8675C34.5542 19.1626 33.5903 20.5 32.2251 20.5H27C25.8954 20.5 25 19.6046 25 18.5V17.5Z"
              fill="white"/>
    </symbol>

    <symbol id="icon-submenu4" viewBox="0 0 48 49">
        <path d="M9.5 6C9.5 4.89543 10.3954 4 11.5 4H37.5C38.6046 4 39.5 4.89543 39.5 6V43C39.5 44.1046 38.6046 45 37.5 45H11.5C10.3954 45 9.5 44.1046 9.5 43V6Z"/>
        <path d="M9.5 6C9.5 4.89543 10.3954 4 11.5 4H37.5C38.6046 4 39.5 4.89543 39.5 6V43C39.5 44.1046 38.6046 45 37.5 45H11.5C10.3954 45 9.5 44.1046 9.5 43V6Z"/>
        <path d="M10 27H39"/>
        <path d="M10 27H39"/>
        <path d="M10 33H39"/>
        <path d="M10 33H39"/>
        <path d="M21.5 30H27.5" stroke-linecap="round" stroke-linejoin="round"/>
        <path d="M21.5 30H27.5" stroke-linecap="round" stroke-linejoin="round"/>
        <path d="M21.5 36H27.5" stroke-linecap="round" stroke-linejoin="round"/>
        <path d="M21.5 36H27.5" stroke-linecap="round" stroke-linejoin="round"/>
        <path d="M24.5 4.5V27.5"/>
        <path d="M24.5 4.5V27.5"/>
        <path d="M19.5 15.5V19.5" stroke-linecap="round" stroke-linejoin="round"/>
        <path d="M19.5 15.5V19.5" stroke-linecap="round" stroke-linejoin="round"/>
        <path d="M29.5 15.5V19.5" stroke-linecap="round" stroke-linejoin="round"/>
        <path d="M29.5 15.5V19.5" stroke-linecap="round" stroke-linejoin="round"/>
    </symbol>

    <symbol id="icon-submenu5" viewBox="0 0 48 49">
        <path d="M2.5 17.8C2.5 17.3582 2.85817 17 3.3 17H44.6998C45.1416 17 45.4998 17.3582 45.4998 17.8V17.8C45.4998 19.5673 44.0671 21 42.2998 21H5.7C3.93269 21 2.5 19.5673 2.5 17.8V17.8Z"
              stroke-linejoin="round"/>
        <path d="M22.5 21L23 46H26L26.5 21" stroke-linejoin="round"/>
        <path d="M7 21L2.5 46H5.5L11 21" stroke-linejoin="round"/>
        <path d="M41.5 21L46 46H43L37.5 21" stroke-linejoin="round"/>
        <path d="M9 11H16L15.2026 16.1532C15.1271 16.6406 14.7076 17.0002 14.2143 17.0002H10.9087C10.4242 17.0002 10.0095 16.6529 9.92429 16.176L9 11Z"
              stroke-linejoin="round"/>
        <path d="M12.5 10.5C12.5 8.5 12.5 5.5 15.5 4.5" stroke-linecap="round"
              stroke-linejoin="round"/>
        <path d="M15.4708 9.34474L15.3822 9.83683L15.4708 9.34474ZM14.6901 7.07465L14.3233 6.73494L14.6901 7.07465ZM13.0291 8.86857L12.6622 8.52887L13.0291 8.86857ZM13.0422 8.90759L12.9536 9.39968L13.0422 8.90759ZM13.396 9.20828L15.057 7.41435L14.3233 6.73494L12.6622 8.52887L13.396 9.20828ZM15.5594 8.85265L13.1307 8.4155L12.9536 9.39968L15.3822 9.83683L15.5594 8.85265ZM16.4226 8.49494C16.2296 8.7728 15.8923 8.91258 15.5594 8.85265L15.3822 9.83683C16.1003 9.96608 16.8278 9.66462 17.2439 9.06533L16.4226 8.49494ZM15.8857 7.15485C16.4939 7.2862 16.7712 7.99292 16.4226 8.49494L17.2439 9.06533C18.0057 7.9684 17.3915 6.45704 16.0968 6.17739L15.8857 7.15485ZM15.057 7.41435C15.2657 7.18894 15.5826 7.08936 15.8857 7.15485L16.0968 6.17739C15.4511 6.0379 14.7741 6.24801 14.3233 6.73494L15.057 7.41435ZM12.6622 8.52887C12.3812 8.83232 12.5466 9.32642 12.9536 9.39968L13.1307 8.4155C13.5013 8.48219 13.6518 8.93201 13.396 9.20828L12.6622 8.52887Z"
              fill="#272727"/>
        <path d="M12.3068 8.7617L11.8199 8.87512L12.3068 8.7617ZM12.275 8.78872L12.0843 9.25091L12.275 8.78872ZM11.8199 8.87512L11.3064 6.67047L12.2803 6.44363L12.7938 8.64827L11.8199 8.87512ZM10.8273 6.12456L10.7294 6.08779L11.0809 5.1516L11.1788 5.18837L10.8273 6.12456ZM10.2136 7.39706L12.4657 8.32654L12.0843 9.25091L9.83211 8.32143L10.2136 7.39706ZM9.78103 6.80769C9.80385 7.06951 9.97067 7.2968 10.2136 7.39706L9.83211 8.32143C9.24394 8.07869 8.84005 7.52841 8.7848 6.89452L9.78103 6.80769ZM10.7294 6.08779C10.2447 5.90581 9.73607 6.29191 9.78103 6.80769L8.7848 6.89452C8.67597 5.64578 9.90742 4.71102 11.0809 5.1516L10.7294 6.08779ZM11.3064 6.67047C11.248 6.41986 11.0682 6.215 10.8273 6.12456L11.1788 5.18837C11.7327 5.39634 12.1461 5.86738 12.2803 6.44363L11.3064 6.67047ZM12.7938 8.64827C12.8904 9.06296 12.4778 9.41334 12.0843 9.25091L12.4657 8.32654C12.1075 8.17867 11.7319 8.49763 11.8199 8.87512L12.7938 8.64827Z"
              fill="#272727"/>
    </symbol>

    <symbol id="icon-submenu6" viewBox="0 0 48 49">
        <path d="M2.5 29V35C2.5 35.5523 2.94772 36 3.5 36H24.5M2.5 29V26H45.5V29M2.5 29H24.5M45.5 29V35C45.5 35.5523 45.0523 36 44.5 36H24.5M45.5 29H24.5M24.5 29V36"
              stroke-linejoin="round"/>
        <path d="M11 32H15" stroke-linecap="round" stroke-linejoin="round"/>
        <path d="M22 42H26" stroke-linecap="round" stroke-linejoin="round"/>
        <path d="M34 32H38" stroke-linecap="round" stroke-linejoin="round"/>
        <path d="M42.5 39H5.5M42.5 39V36H5.5V39M42.5 39V45H5.5V39" stroke-linejoin="round"/>
        <path d="M12.375 22H16.25H24H31.75H35.625M12.375 22H8.5V6H39.5V22H35.625M12.375 22L8.5 25.875M35.625 22L39.5 25.875"
              stroke-linejoin="round"/>
    </symbol>

    <symbol id="icon-submenu7" viewBox="0 0 48 49">
        <path d="M23.5 6H39.5C40.6046 6 41.5 6.89543 41.5 8V33.4999M23.5 6L23.5439 33.4999M23.5 6H8.5M23.5 6H18.5M8.5 6C7.39543 6 6.5 6.89543 6.5 8M8.5 6H18.5M6.5 8V33.5V16M6.5 8V11M18.5 6V33.4998V16M18.5 6V11M18.5 11H6.5M18.5 11H12.5M18.5 11V16M6.5 11H12.5M6.5 11V16M12.5 11V16M12.5 16H6.5M12.5 16H18.5"/>
        <path d="M41.4996 34H5.50045C4.39572 34 3.50022 34.8957 3.50045 36.0004L3.50129 40.0001H41.5008"/>
        <path d="M42.4995 23H41.5V41.5002C41.5 42.3285 42.1715 43 42.9998 43C43.8281 43 44.4995 42.3285 44.4995 41.5002V25C44.4995 23.8954 43.6041 23 42.4995 23Z"/>
        <path d="M3.5 39.5V41.5C3.5 42.3284 4.17157 43 5 43V43C5.82843 43 6.5 42.3284 6.5 41.5V39.5"/>
        <mask id="path-5-inside-1_1144_39113" fill="white">
            <path d="M31.8865 32.2837C32.5927 30.5182 34.0404 29.1532 35.8443 28.5519L36.1363 28.4546C39.021 27.493 42 29.6625 42 32.7032C42 33.692 41.1985 34.5 40.2097 34.5H33.387C32.2437 34.5 31.4619 33.3453 31.8865 32.2837Z"/>
        </mask>
        <path d="M31.8865 32.2837C32.5927 30.5182 34.0404 29.1532 35.8443 28.5519L36.1363 28.4546C39.021 27.493 42 29.6625 42 32.7032C42 33.692 41.1985 34.5 40.2097 34.5H33.387C32.2437 34.5 31.4619 33.3453 31.8865 32.2837Z"
              fill="white"/>
        <path d="M36.1605 29.5006L36.4525 29.4033L35.82 27.5059L35.5281 27.6032L36.1605 29.5006ZM40.2097 33.5H33.387V35.5H40.2097V33.5ZM33.387 33.5C32.9512 33.5 32.6531 33.0598 32.815 32.6551L30.958 31.9123C30.2707 33.6307 31.5362 35.5 33.387 35.5V33.5ZM41 32.7032C41 33.1444 40.6415 33.5 40.2097 33.5V35.5C41.7554 35.5 43 34.2396 43 32.7032H41ZM36.4525 29.4033C38.6825 28.6599 41 30.3375 41 32.7032H43C43 28.9875 39.3595 26.3261 35.82 27.5059L36.4525 29.4033ZM35.5281 27.6032C33.4451 28.2975 31.7735 29.8737 30.958 31.9123L32.815 32.6551C33.4119 31.1627 34.6357 30.0089 36.1605 29.5006L35.5281 27.6032Z"
              fill="#272727" mask="url(#path-5-inside-1_1144_39113)"/>
    </symbol>


    <symbol id="icon-submenu8" viewBox="0 0 48 49">
        <path d="M2.5 29V41H17.5V29M2.5 29V8H17.5V29M2.5 29H17.5M14.5 25H11" stroke-linecap="round"
              stroke-linejoin="round"/>
        <path d="M18 36H28M18 31H28" stroke-linecap="round" stroke-linejoin="round"/>
        <path d="M17.5 26H28.5V41H17.5V26Z" stroke-linecap="round" stroke-linejoin="round"/>
        <path d="M45.5 26H28.5V41H45.5V26Z" stroke-linecap="round" stroke-linejoin="round"/>
        <path d="M42.5 32H31.5V38H42.5V32Z" stroke-linecap="round" stroke-linejoin="round"/>
        <path d="M42.5 28H31.5V30H42.5V28Z" stroke-linecap="round" stroke-linejoin="round"/>
        <path d="M24.5 28H21.5" stroke-linecap="round" stroke-linejoin="round"/>
        <path d="M38.5 36H35.5" stroke-linecap="round" stroke-linejoin="round"/>
        <path d="M24.5 33H21.5M24.5 38H21.5" stroke-linecap="round" stroke-linejoin="round"/>
        <path d="M32.5 14H41.5M32.5 14L33.3607 8.8356C33.4411 8.35341 33.8583 8 34.3471 8H39.6529C40.1417 8 40.5589 8.35341 40.6393 8.8356L41.5 14M32.5 14H28.5L26.5 17H47.5L45.5 14H41.5"
              stroke-linejoin="round"/>
    </symbol>

    <symbol id="icon-submenu9" viewBox="0 0 48 49">
        <g>
            <path d="M2.5 41V48H5.5L6 41" stroke-linejoin="round"/>
            <path d="M2.5 19H44.8998C45.2312 19 45.4998 19.2686 45.4998 19.6V19.6C45.4998 20.9256 44.4252 22.0002 43.0997 22.0002H2.5V19Z"
                  stroke-linejoin="round"/>
            <path d="M41 22L42.5 48H39.5L37 22" stroke-linejoin="round"/>
            <path d="M2.5 28V41H9.5M2.5 28V22H23.5V28M2.5 28H9.5M23.5 28V41H9.5M23.5 28H9.5M9.5 28V41"
                  stroke-linejoin="round"/>
            <path d="M15.5 25H10.5" stroke-linecap="round" stroke-linejoin="round"/>
            <path d="M12.5 36L12.5 33M6.5 36L6.5 33" stroke-linecap="round" stroke-linejoin="round"/>
            <path d="M27.5 15H36.5V4H18.5V15H27.5ZM27.5 15V19" stroke-linejoin="round"/>
        </g>
    </symbol>

    <symbol id="icon-submenu10" viewBox="0 0 48 49">
        <path fill-rule="evenodd" clip-rule="evenodd"
              d="M40.5 31.5H14.5V30.5H40.5C41.8807 30.5 43 31.6193 43 33V34V39V42C43 42.2761 42.7761 42.5 42.5 42.5H39.5C39.3328 42.5 39.1767 42.4164 39.084 42.2774L37.2324 39.5H19.7676L17.916 42.2774C17.8233 42.4164 17.6672 42.5 17.5 42.5H13.5C13.2239 42.5 13 42.2761 13 42C13 41.7239 13.2239 41.5 13.5 41.5H17.2324L18.5657 39.5H14.5V38.5H19.4932H19.5078H37.4922C37.4971 38.4999 37.502 38.4999 37.5068 38.5H42V34.5H14.5V33.5H42V33C42 32.1716 41.3284 31.5 40.5 31.5ZM38.4343 39.5L39.7676 41.5H42V39.5H38.4343Z"
              fill="#272727"/>
        <path d="M14.5 8H42.5V12.0002H14.5M14.5 8L3.5 8V42.0002H14.5V12.0002M14.5 8V12.0002"
              stroke-linejoin="round"/>
        <path d="M11.5 25.5L11.5 22.5" stroke-linecap="round" stroke-linejoin="round"/>
        <path d="M18.5 17C18.5 16.1716 19.1716 15.5 20 15.5V15.5C20.8284 15.5 21.5 16.1716 21.5 17V18.5C21.5 19.3284 20.8284 20 20 20V20C19.1716 20 18.5 19.3284 18.5 18.5V17Z"
              stroke-linejoin="round"/>
        <path d="M25.5 17C25.5 16.1716 26.1716 15.5 27 15.5V15.5C27.8284 15.5 28.5 16.1716 28.5 17V18.5C28.5 19.3284 27.8284 20 27 20V20C26.1716 20 25.5 19.3284 25.5 18.5V17Z"
              stroke-linejoin="round"/>
        <path d="M32.5 17C32.5 16.1716 33.1716 15.5 34 15.5V15.5C34.8284 15.5 35.5 16.1716 35.5 17V18.5C35.5 19.3284 34.8284 20 34 20V20C33.1716 20 32.5 19.3284 32.5 18.5V17Z"
              stroke-linejoin="round"/>
        <path d="M39.5 17C39.5 16.1716 40.1716 15.5 41 15.5V15.5C41.8284 15.5 42.5 16.1716 42.5 17V18.5C42.5 19.3284 41.8284 20 41 20V20C40.1716 20 39.5 19.3284 39.5 18.5V17Z"
              stroke-linejoin="round"/>
    </symbol>

    <symbol id="icon-submenu11" viewBox="0 0 48 49">
        <path d="M43.25 23.5937H43.671C45.7656 23.5937 47.2155 25.6859 46.48 27.6471L45.8768 29.2556C45.145 31.2071 43.2794 32.5 41.1952 32.5H7.59298C5.58735 32.5 3.77581 31.3015 2.99133 29.4557L2.2737 27.7672C1.43281 25.7886 2.88485 23.5937 5.0347 23.5937H5.25M43.25 23.5937L41.6628 27.2066C41.1841 28.2963 40.1064 29 38.9162 29H9.5838C8.39356 29 7.31588 28.2963 6.83716 27.2066L5.25 23.5937M43.25 23.5937L43.8535 22.1724C44.6935 20.194 43.2414 18 41.0921 18H7.40795C5.25856 18 3.80653 20.194 4.64654 22.1724L5.25 23.5937"
              stroke-linejoin="round"/>
        <path d="M10.1302 36.8917L9.70619 36.6267L10.1302 36.8917ZM8.07743 32.6287L7.29197 35.7706L8.26211 36.0131L9.04757 32.8713L8.07743 32.6287ZM10.5542 37.1567L13.1427 33.015L12.2948 32.485L9.70619 36.6267L10.5542 37.1567ZM9.03266 38C9.6513 38 10.2263 37.6813 10.5542 37.1567L9.70619 36.6267C9.56105 36.8589 9.30651 37 9.03266 37V38ZM7.29197 35.7706C7.00886 36.903 7.86536 38 9.03266 38V37C8.51594 37 8.13679 36.5144 8.26211 36.0131L7.29197 35.7706Z"
              fill="#272727"/>
        <path d="M38.4636 36.8917L38.8876 36.6267L38.4636 36.8917ZM40.5163 32.6287L41.3018 35.7706L40.3316 36.0131L39.5462 32.8713L40.5163 32.6287ZM38.0396 37.1567L35.451 33.015L36.299 32.485L38.8876 36.6267L38.0396 37.1567ZM39.5611 38C38.9424 38 38.3674 37.6813 38.0396 37.1567L38.8876 36.6267C39.0327 36.8589 39.2872 37 39.5611 37V38ZM41.3018 35.7706C41.5849 36.903 40.7284 38 39.5611 38V37C40.0778 37 40.457 36.5144 40.3316 36.0131L41.3018 35.7706Z"
              fill="#272727"/>
        <path d="M19.8438 28.5938V26.4375C19.8438 25.3329 18.9483 24.4375 17.8438 24.4375H13.5313C12.4267 24.4375 11.5312 25.3329 11.5312 26.4375V28.5938"
              stroke-linejoin="round"/>
        <path d="M36.4688 28.5938V26.4375C36.4688 25.3329 35.5733 24.4375 34.4688 24.4375H30.1563C29.0517 24.4375 28.1562 25.3329 28.1562 26.4375V28.5938"
              stroke-linejoin="round"/>
    </symbol>


    <symbol id="location" viewBox="0 0 16 16">
        <path d="M12.5 6.15789C12.5 8.1489 11.3362 10.248 10.0997 11.9002C9.48956 12.7155 8.87836 13.4002 8.4195 13.8811C8.25826 14.0501 8.11618 14.1935 8 14.3083C7.88383 14.1935 7.74174 14.0501 7.5805 13.8811C7.12164 13.4002 6.51044 12.7155 5.90031 11.9002C4.66378 10.248 3.5 8.1489 3.5 6.15789C3.5 3.57064 5.52926 1.5 8 1.5C10.4707 1.5 12.5 3.57064 12.5 6.15789Z"/>
    </symbol>


    <symbol id="search" viewBox="0 0 24 24">
        <circle cx="10" cy="10" r="8.5"/>
        <path d="M16 16L22 22"/>
    </symbol>

    <symbol id="close" viewBox="0 0 12 12">
        <path d="M6.35355 6.35355L1.35355 11.3536L0.646447 10.6464L5.64645 5.64645L6.35355 6.35355ZM5.64645 6.35355L0.646447 1.35355L1.35355 0.646446L6.35355 5.64645L5.64645 6.35355ZM6.35355 5.64645L11.3536 10.6464L10.6464 11.3536L5.64645 6.35355L6.35355 5.64645ZM5.64645 5.64645L10.6464 0.646446L11.3536 1.35355L6.35355 6.35355L5.64645 5.64645Z"/>
        <path d="M6.35355 6.35355L1.35355 11.3536L0.646447 10.6464L5.64645 5.64645L6.35355 6.35355ZM5.64645 6.35355L0.646447 1.35355L1.35355 0.646446L6.35355 5.64645L5.64645 6.35355ZM6.35355 5.64645L11.3536 10.6464L10.6464 11.3536L5.64645 6.35355L6.35355 5.64645ZM5.64645 5.64645L10.6464 0.646446L11.3536 1.35355L6.35355 6.35355L5.64645 5.64645Z"/>
    </symbol>

    <symbol id="close2" viewBox="0 0 32 32">
        <path d="M16.3536 15.6464L3.35355 2.64645L2.64645 3.35355L15.6464 16.3536L16.3536 15.6464ZM15.6464 15.6464L2.64645 28.6464L3.35355 29.3536L16.3536 16.3536L15.6464 15.6464ZM16.3536 16.3536L29.3536 3.35355L28.6464 2.64645L15.6464 15.6464L16.3536 16.3536ZM15.6464 16.3536L28.6464 29.3536L29.3536 28.6464L16.3536 15.6464L15.6464 16.3536Z"/>
    </symbol>


    <symbol id="arrow-right" viewBox="0 0 24 24">
        <path d="M20 11.5L2 11.5"/>
        <path d="M20 11.5L20.3379 11.8686L20.7399 11.5L20.3379 11.1314L20 11.5ZM14.3379 17.3686L20.3379 11.8686L19.6621 11.1314L13.6621 16.6314L14.3379 17.3686ZM20.3379 11.1314L14.3379 5.63142L13.6621 6.36858L19.6621 11.8686L20.3379 11.1314Z"/>
    </symbol>

    <symbol id="arrow-left" viewBox="0 0 24 24">
        <path d="M2 11.5L20 11.5"/>
        <path d="M2 11.5L1.66214 11.8686L1.26005 11.5L1.66214 11.1314L2 11.5ZM7.66214 17.3686L1.66214 11.8686L2.33786 11.1314L8.33786 16.6314L7.66214 17.3686ZM1.66214 11.1314L7.66214 5.63142L8.33786 6.36858L2.33786 11.8686L1.66214 11.1314Z"/>
    </symbol>


    <symbol id="instagram" viewBox="0 0 28 28">
        <path d="M9.28239 2.58206H18.7178V0.00876236H9.28239V2.58206ZM25.151 9.0153V18.4507H27.7243V9.0153H25.151ZM18.7178 24.884H9.28239V27.4573H18.7178V24.884ZM2.84915 18.4507V9.0153H0.275852V18.4507H2.84915ZM9.28239 24.884C5.72941 24.884 2.84915 22.0037 2.84915 18.4507H0.275852C0.275852 23.4249 4.30822 27.4573 9.28239 27.4573V24.884ZM25.151 18.4507C25.151 22.0037 22.2708 24.884 18.7178 24.884V27.4573C23.692 27.4573 27.7243 23.4249 27.7243 18.4507H25.151ZM18.7178 2.58206C22.2708 2.58206 25.151 5.46232 25.151 9.0153H27.7243C27.7243 4.04113 23.692 0.00876236 18.7178 0.00876236V2.58206ZM9.28239 0.00876236C4.30822 0.00876236 0.275852 4.04113 0.275852 9.0153H2.84915C2.84915 5.46232 5.72941 2.58206 9.28239 2.58206V0.00876236ZM14.0001 18.0218C11.6314 18.0218 9.71127 16.1017 9.71127 13.733H7.13797C7.13797 17.5229 10.2103 20.5951 14.0001 20.5951V18.0218ZM18.2889 13.733C18.2889 16.1017 16.3688 18.0218 14.0001 18.0218V20.5951C17.7899 20.5951 20.8622 17.5229 20.8622 13.733H18.2889ZM14.0001 9.44418C16.3688 9.44418 18.2889 11.3644 18.2889 13.733H20.8622C20.8622 9.94316 17.7899 6.87088 14.0001 6.87088V9.44418ZM14.0001 6.87088C10.2103 6.87088 7.13797 9.94316 7.13797 13.733H9.71127C9.71127 11.3644 11.6314 9.44418 14.0001 9.44418V6.87088Z"/>
        <rect x="18.2852" y="4.29785" width="3.43106" height="3.43106" rx="1.71553"/>
    </symbol>

    <symbol id="vk" viewBox="0 0 24 16">
        <path d="M23.8518 14.3553C23.8238 14.2866 23.7977 14.2296 23.7735 14.1839C23.3725 13.3612 22.6063 12.3513 21.4752 11.1541L21.4513 11.1266L21.4393 11.1132L21.4272 11.0994H21.4151C20.9018 10.5419 20.5767 10.1671 20.4406 9.97514C20.1915 9.60955 20.1357 9.2395 20.2718 8.86454C20.368 8.58125 20.7293 7.98298 21.3548 7.06891C21.6838 6.58449 21.9444 6.19624 22.1369 5.90373C23.5248 3.80161 24.1265 2.45834 23.9419 1.87337L23.8702 1.73667C23.822 1.65437 23.6977 1.57908 23.4974 1.51042C23.2966 1.4419 23.04 1.43057 22.727 1.47623L19.2616 1.5035C19.2055 1.48084 19.1253 1.48295 19.0209 1.51042C18.9166 1.53788 18.8644 1.55166 18.8644 1.55166L18.8041 1.58599L18.7562 1.62724C18.7161 1.65451 18.672 1.70248 18.6238 1.77105C18.5759 1.83937 18.5358 1.91956 18.5038 2.01093C18.1265 3.11677 17.6975 4.14492 17.2161 5.09534C16.9192 5.66207 16.6466 6.15321 16.3977 6.56907C16.1491 6.98479 15.9405 7.29108 15.7721 7.48742C15.6036 7.68394 15.4514 7.84138 15.3148 7.96032C15.1784 8.0793 15.0742 8.12957 15.0021 8.11118C14.9298 8.09279 14.8618 8.07455 14.7973 8.0563C14.6851 7.974 14.5948 7.86208 14.5267 7.72043C14.4584 7.57879 14.4124 7.40051 14.3883 7.18574C14.3643 6.97082 14.3502 6.78596 14.3461 6.63053C14.3424 6.4753 14.3441 6.25573 14.3523 5.97244C14.3606 5.689 14.3643 5.49723 14.3643 5.39668C14.3643 5.04934 14.3703 4.67237 14.3822 4.26568C14.3944 3.85899 14.4042 3.53676 14.4124 3.29937C14.4206 3.06175 14.4244 2.81034 14.4244 2.54529C14.4244 2.28025 14.4102 2.07239 14.3822 1.92153C14.3546 1.77085 14.3121 1.6246 14.2562 1.48281C14.1999 1.34116 14.1176 1.23159 14.0095 1.15381C13.9012 1.07612 13.7666 1.01447 13.6064 0.968662C13.1812 0.859043 12.6398 0.799744 11.9818 0.790525C10.4898 0.772279 9.53114 0.882042 9.10597 1.11967C8.93751 1.22007 8.78507 1.35725 8.64877 1.53078C8.50434 1.73191 8.48419 1.84168 8.58846 1.85973C9.06985 1.94188 9.41064 2.13841 9.61122 2.44912L9.6835 2.61376C9.73972 2.73255 9.79586 2.94286 9.85204 3.2444C9.90813 3.54593 9.94434 3.8795 9.96027 4.24489C10.0003 4.91216 10.0003 5.48335 9.96027 5.95851C9.9201 6.43386 9.88217 6.80392 9.84597 7.06896C9.80977 7.33401 9.75565 7.54878 9.6835 7.71323C9.61122 7.87773 9.56313 7.97828 9.53902 8.01477C9.51496 8.05126 9.49489 8.07426 9.47896 8.08329C9.37469 8.1288 9.26625 8.152 9.15402 8.152C9.04161 8.152 8.90531 8.08794 8.74491 7.95993C8.58454 7.83193 8.41811 7.65609 8.2456 7.43215C8.0731 7.20816 7.87856 6.89515 7.66188 6.49307C7.44538 6.09099 7.22074 5.61578 6.9881 5.06744L6.79562 4.66978C6.67529 4.41395 6.51092 4.04145 6.30234 3.55261C6.09363 3.06357 5.90916 2.59052 5.7488 2.13356C5.68469 1.94164 5.58839 1.79553 5.46005 1.69499L5.39983 1.65374C5.35979 1.61725 5.29552 1.5785 5.20735 1.53721C5.11905 1.49597 5.02692 1.46639 4.93057 1.44819L1.63354 1.47546C1.29663 1.47546 1.06803 1.56242 0.947657 1.73609L0.899485 1.81824C0.875419 1.864 0.863281 1.93708 0.863281 2.03768C0.863281 2.13822 0.887347 2.26162 0.935519 2.40773C1.41683 3.69646 1.94024 4.93934 2.50575 6.13655C3.07126 7.33377 3.56269 8.29815 3.97972 9.02885C4.39684 9.76008 4.82201 10.4502 5.25522 11.0989C5.68844 11.7478 5.9752 12.1637 6.11551 12.3464C6.25598 12.5294 6.36632 12.6663 6.44652 12.7576L6.7474 13.0866C6.93992 13.306 7.22264 13.5687 7.59567 13.8748C7.96879 14.1811 8.38186 14.4826 8.8351 14.7799C9.28842 15.0767 9.81579 15.3189 10.4175 15.5062C11.0191 15.6937 11.6047 15.7689 12.1743 15.7326H13.5581C13.8388 15.705 14.0514 15.6045 14.1959 15.4309L14.2438 15.3622C14.276 15.3077 14.3061 15.2229 14.334 15.1089C14.3621 14.9947 14.3761 14.8688 14.3761 14.7319C14.3679 14.339 14.3941 13.9849 14.4542 13.6696C14.5141 13.3545 14.5825 13.1168 14.6589 12.9568C14.7354 12.7969 14.8216 12.662 14.9176 12.5526C15.0137 12.443 15.0823 12.3766 15.1225 12.3537C15.1624 12.3307 15.1943 12.3151 15.2184 12.3058C15.4109 12.2327 15.6375 12.3034 15.8985 12.5184C16.1592 12.7332 16.4038 12.9984 16.6326 13.3135C16.8612 13.629 17.1359 13.9829 17.4567 14.3758C17.7777 14.7689 18.0584 15.0611 18.299 15.2533L18.5396 15.4178C18.7002 15.5275 18.9088 15.6281 19.1656 15.7195C19.4219 15.8108 19.6464 15.8336 19.8392 15.788L22.9195 15.7332C23.2242 15.7332 23.4613 15.6758 23.6295 15.5617C23.798 15.4475 23.8981 15.3216 23.9303 15.1848C23.9625 15.0477 23.9643 14.8922 23.9364 14.7184C23.9079 14.545 23.8798 14.4238 23.8518 14.3553Z"/>
    </symbol>

    <symbol id="telegram" viewBox="0 0 12 10">
        <path d="M1.3502 4.95616L3.71281 5.67889C5.3863 4.61889 8.76282 2.48445 8.88095 2.42664C9.02862 2.35436 9.25011 2.20982 9.32394 2.28209C9.38301 2.33991 9.25011 2.49891 9.17628 2.57118L4.96788 6.32934L4.74639 8.64205C4.86944 8.64205 5.18938 8.56978 5.4847 8.28069L6.44451 7.34115C6.93672 7.7266 8.03928 8.58423 8.5118 8.93114C9.10245 9.36477 9.39778 9.07568 9.54544 8.4975C9.6931 7.91933 10.3576 4.66708 10.6529 3.2939C10.9482 1.92073 11.2436 1.05346 11.0221 0.90892C10.8449 0.793284 10.3576 0.90892 10.1361 0.981192C7.50279 1.96891 2.04421 4.01663 1.27637 4.30571C0.508517 4.5948 1.00565 4.8598 1.3502 4.95616Z"/>
    </symbol>

    <symbol id="whatsapp" viewBox="0 0 14 14">
        <path fill-rule="evenodd" clip-rule="evenodd"
              d="M6.41188 0.928729C3.69888 1.20359 1.49072 3.26123 1.03134 5.94249C0.848544 7.00941 0.966875 8.13662 1.36854 9.15453C1.45676 9.37811 1.67872 9.84367 1.73572 9.9247C1.76335 9.96398 1.80189 9.8116 1.3475 11.4602C1.15538 12.1571 0.975979 12.8085 0.948827 12.9078C0.921321 13.0082 0.907321 13.0882 0.917255 13.0882C0.932422 13.0882 1.86252 12.8477 2.37265 12.7119C2.46015 12.6886 2.88785 12.5769 3.32308 12.4636L4.1144 12.2577L4.26881 12.3366C5.50651 12.9694 6.98649 13.1506 8.37404 12.8395C8.99438 12.7003 9.68929 12.4134 10.239 12.0694C11.0143 11.5841 11.7175 10.8777 12.1946 10.1049C12.9447 8.88988 13.236 7.45908 13.0224 6.03929C12.7675 4.34569 11.8062 2.85194 10.3538 1.8922C9.54713 1.35923 8.59762 1.0266 7.59879 0.927057C7.38433 0.905691 6.62876 0.906747 6.41188 0.928729ZM7.54321 1.94921C9.55494 2.14299 11.3047 3.59407 11.8635 5.5321C12.0072 6.03054 12.0575 6.39566 12.0581 6.9457C12.0585 7.38389 12.0418 7.56697 11.9684 7.93056C11.6094 9.70718 10.3167 11.1534 8.57733 11.7246C7.21491 12.1719 5.66461 11.9981 4.43204 11.2598C4.3494 11.2103 4.26985 11.17 4.25526 11.1702C4.24068 11.1704 3.81113 11.2804 3.3007 11.4145C2.79027 11.5487 2.37002 11.6561 2.36682 11.6532C2.35911 11.6463 2.6243 10.6629 2.82306 9.96125C2.8427 9.89191 2.85877 9.82635 2.85877 9.81556C2.85877 9.80477 2.81246 9.72274 2.75584 9.63326C2.37449 9.03059 2.13802 8.39434 2.02517 7.66731C1.99153 7.4506 1.9855 7.34044 1.98524 6.9369C1.98497 6.53159 1.99068 6.42546 2.02402 6.21529C2.19887 5.11292 2.69294 4.14517 3.47226 3.37861C4.55525 2.31339 6.01241 1.80174 7.54321 1.94921ZM4.7632 4.16516C4.64434 4.19528 4.55473 4.25294 4.43992 4.3732C4.27754 4.54329 4.19219 4.66272 4.10462 4.84247C3.99944 5.05834 3.95228 5.25205 3.94174 5.51128C3.91843 6.08463 4.13718 6.61494 4.71496 7.38571C5.48087 8.40745 6.34886 9.12135 7.2928 9.50592C7.63109 9.64375 8.09603 9.79263 8.28786 9.82455C8.50043 9.85995 8.86621 9.85129 9.03251 9.8069C9.41632 9.7045 9.84161 9.40808 9.96433 9.15745C10.0385 9.0059 10.0924 8.76465 10.0952 8.57092C10.0982 8.36611 10.0932 8.36037 9.77345 8.20294C8.8824 7.76416 8.70029 7.68491 8.58326 7.68491C8.49962 7.68491 8.49884 7.68565 8.2562 7.99292C8.02902 8.28059 7.88691 8.43422 7.82396 8.46018C7.75198 8.48986 7.68376 8.46724 7.32225 8.29379C6.63477 7.96394 6.11363 7.50548 5.67536 6.84497C5.52088 6.61216 5.4866 6.53808 5.50168 6.46972C5.50773 6.44226 5.56843 6.35794 5.63656 6.28235C5.89772 5.99254 6.00481 5.81909 6.00512 5.68531C6.00523 5.64233 5.98395 5.56605 5.95271 5.49747C5.92377 5.43395 5.805 5.15092 5.68877 4.86852C5.47545 4.35028 5.41966 4.24005 5.34655 4.19234C5.29703 4.16004 4.86318 4.13984 4.7632 4.16516Z"/>
    </symbol>

    <symbol id="viber" viewBox="0 0 14 15">
        <path fill-rule="evenodd" clip-rule="evenodd"
              d="M8.21813 3.14675C9.37736 3.37482 10.3178 4.28775 10.577 5.43657C10.6957 5.96265 10.6487 6.71283 10.4871 6.87123C10.3807 6.97547 10.2216 6.9736 10.1126 6.86674C10.0156 6.77162 10.0152 6.76693 10.0681 6.34605C10.1371 5.79759 9.99864 5.22383 9.68233 4.74795C9.3652 4.27084 8.77225 3.85087 8.21755 3.71045C7.97222 3.64835 7.4385 3.63277 7.09997 3.67786C6.89968 3.70452 6.88321 3.70137 6.80096 3.62075C6.63217 3.45531 6.71795 3.20533 6.96403 3.14544C7.26814 3.07145 7.83839 3.07205 8.21813 3.14675ZM4.99451 3.70288C5.26035 3.82903 5.84895 4.55455 6.07908 5.0397C6.2386 5.376 6.186 5.53608 5.82175 5.82271C5.50236 6.07399 5.4441 6.30904 5.60663 6.69039C5.88398 7.34115 6.43674 7.88864 7.18906 8.25773C7.61815 8.46825 7.8534 8.42863 8.07853 8.1079C8.13738 8.02403 8.25528 7.9154 8.34047 7.86643C8.47436 7.78952 8.52207 7.77984 8.69212 7.79495C8.95337 7.81816 9.07148 7.88194 9.69227 8.33521C10.2612 8.75059 10.3705 8.87657 10.3705 9.11704C10.3705 9.44104 9.97574 9.93655 9.55647 10.1389C9.36516 10.2312 9.29179 10.2483 9.08819 10.2483C8.88092 10.2483 8.80342 10.2295 8.54069 10.1153C6.26481 9.12578 4.65469 7.52434 3.79123 5.39141C3.65481 5.05441 3.62795 4.95158 3.62511 4.75499C3.61951 4.3667 3.82387 4.03265 4.19875 3.8173C4.52716 3.62865 4.76575 3.59435 4.99451 3.70288ZM7.92051 3.93749C8.60959 4.04015 9.22943 4.46923 9.53835 5.05732C9.61552 5.20424 9.69562 5.37718 9.71636 5.44166C9.78464 5.65395 9.8251 6.04944 9.80156 6.27464C9.78249 6.45712 9.7611 6.51303 9.68007 6.59248C9.59823 6.6727 9.56337 6.68523 9.47216 6.66738C9.26394 6.62654 9.22632 6.55262 9.23616 6.20362C9.24631 5.84374 9.18927 5.59145 9.03259 5.30335C8.83486 4.93969 8.39276 4.60995 7.96508 4.50712C7.87322 4.48504 7.65181 4.47041 7.47305 4.47459C7.15701 4.482 7.1458 4.47969 7.06768 4.39062C6.96578 4.27452 6.9656 4.16375 7.06717 4.04806C7.18623 3.91236 7.4889 3.87314 7.92051 3.93749ZM7.84851 4.77589C8.35226 4.88067 8.74491 5.23887 8.90184 5.73686C8.99342 6.02754 8.98966 6.1852 8.88837 6.30063C8.82744 6.37003 8.77639 6.39294 8.68255 6.39294C8.50266 6.39294 8.4255 6.30177 8.38855 6.04552C8.33254 5.6572 8.04911 5.35822 7.69985 5.31899C7.47674 5.29394 7.3655 5.24172 7.30963 5.13577C7.2462 5.01559 7.2758 4.89179 7.38874 4.8047C7.48713 4.72886 7.59098 4.72236 7.84851 4.77589Z"
              fill="white"/>
        <path fill-rule="evenodd" clip-rule="evenodd"
              d="M6.27252 1.17514C4.54737 1.33214 3.30923 1.79194 2.51138 2.57186C1.91902 3.15094 1.66347 3.68788 1.4884 4.7213C1.21142 6.356 1.2228 7.66489 1.52432 8.85182C1.77071 9.82187 2.18178 10.5004 2.79813 10.9546C3.05888 11.1467 3.22797 11.2312 3.69645 11.4037C3.89941 11.4784 4.07738 11.558 4.09198 11.5805C4.1066 11.603 4.11877 12.1226 4.11907 12.7352L4.11959 13.849H4.37941H4.63923L5.61505 12.8952L6.59088 11.9414L7.3971 11.9076C8.58849 11.8577 8.87701 11.8396 9.34341 11.7858C10.9319 11.6025 11.9266 11.0315 12.4574 9.99842C12.8524 9.22952 13.0259 8.49278 13.1085 7.2335C13.1993 5.84971 12.9796 4.26106 12.5804 3.41422C11.886 1.94086 10.166 1.20864 7.31481 1.17243C6.82613 1.1662 6.3571 1.16744 6.27252 1.17514Z"
              stroke="white" stroke-width="1.0246"/>
    </symbol>

    <symbol id="viber2" viewBox="0 0 19 20">
        <path fill-rule="evenodd" clip-rule="evenodd"
              d="M11.0569 3.89289C12.7088 4.2179 14.049 5.51883 14.4183 7.15588C14.5875 7.90556 14.5205 8.97456 14.2902 9.20028C14.1386 9.34882 13.9119 9.34615 13.7566 9.19389C13.6183 9.05833 13.6177 9.05165 13.6932 8.4519C13.7915 7.67034 13.5942 6.85274 13.1434 6.17461C12.6915 5.49472 11.8466 4.89626 11.0561 4.69617C10.7065 4.60767 9.94595 4.58548 9.46356 4.64973C9.17814 4.68772 9.15467 4.68323 9.03746 4.56834C8.79694 4.33259 8.91917 3.97637 9.26984 3.89103C9.7032 3.78559 10.5158 3.78645 11.0569 3.89289ZM6.46327 4.68538C6.84209 4.86514 7.68085 5.89901 8.00878 6.59036C8.2361 7.06958 8.16115 7.29769 7.64209 7.70613C7.18696 8.06422 7.10393 8.39915 7.33554 8.94258C7.73076 9.86991 8.51844 10.6501 9.59051 11.176C10.202 11.476 10.5372 11.4196 10.858 10.9625C10.9419 10.843 11.1099 10.6882 11.2313 10.6184C11.4221 10.5088 11.49 10.4951 11.7324 10.5166C12.1047 10.5497 12.2729 10.6405 13.1576 11.2864C13.9683 11.8784 14.124 12.0579 14.124 12.4006C14.124 12.8623 13.5615 13.5684 12.9641 13.8567C12.6915 13.9882 12.5869 14.0126 12.2968 14.0126C12.0014 14.0126 11.891 13.9858 11.5166 13.823C8.27345 12.413 5.97903 10.131 4.7486 7.09154C4.5542 6.61131 4.51592 6.46477 4.51188 6.18464C4.50389 5.63133 4.7951 5.1553 5.32931 4.84843C5.79729 4.57961 6.13729 4.53073 6.46327 4.68538ZM10.6328 5.01969C11.6148 5.16599 12.498 5.77744 12.9382 6.61546C13.0482 6.82482 13.1624 7.07125 13.1919 7.16314C13.2892 7.46566 13.3469 8.02923 13.3133 8.35013C13.2861 8.61018 13.2557 8.68984 13.1402 8.80306C13.0236 8.91738 12.9739 8.93523 12.8439 8.90979C12.5472 8.8516 12.4936 8.74626 12.5076 8.24894C12.5221 7.73611 12.4408 7.37659 12.2175 6.96605C11.9358 6.44783 11.3058 5.97796 10.6963 5.83142C10.5654 5.79997 10.2499 5.77911 9.99518 5.78507C9.54483 5.79562 9.52886 5.79233 9.41754 5.66541C9.27232 5.49997 9.27208 5.34212 9.41681 5.17726C9.58647 4.98389 10.0178 4.928 10.6328 5.01969ZM10.5302 6.21442C11.2481 6.36373 11.8076 6.87417 12.0312 7.5838C12.1617 7.99801 12.1564 8.22269 12.012 8.38717C11.9252 8.48607 11.8524 8.51872 11.7187 8.51872C11.4624 8.51872 11.3524 8.3888 11.2998 8.02365C11.22 7.47029 10.8161 7.04424 10.3184 6.98834C10.0004 6.95264 9.84193 6.87823 9.76231 6.72725C9.67193 6.55599 9.7141 6.37957 9.87505 6.25547C10.0152 6.1474 10.1632 6.13815 10.5302 6.21442Z"
              fill="#272727"/>
        <path fill-rule="evenodd" clip-rule="evenodd"
              d="M8.28502 1.08326C5.82668 1.30698 4.06234 1.96219 2.9254 3.07358C2.08128 3.89877 1.71713 4.66391 1.46765 6.13653C1.07296 8.46598 1.08918 10.3312 1.51883 12.0225C1.86994 13.4048 2.45572 14.3718 3.33402 15.0189C3.70558 15.2927 3.94653 15.4132 4.61412 15.6589C4.90334 15.7654 5.15695 15.8788 5.17774 15.9109C5.19859 15.943 5.21592 16.6834 5.21636 17.5564L5.21709 19.1434H5.58734H5.95758L7.34813 17.7843L8.73868 16.4252L9.88754 16.3771C11.5853 16.3059 11.9964 16.2802 12.661 16.2035C14.9246 15.9423 16.3421 15.1286 17.0985 13.6564C17.6614 12.5608 17.9087 11.5109 18.0264 9.71641C18.1556 7.74452 17.8426 5.48069 17.2738 4.27394C16.2842 2.17441 13.8333 1.13099 9.77028 1.07939C9.07391 1.07051 8.40554 1.07228 8.28502 1.08326Z"
              stroke="#272727" stroke-width="1.46005"/>
    </symbol>


    <symbol id="basket" viewBox="0 0 24 25">
        <path fill-rule="evenodd" clip-rule="evenodd"
              d="M2.49379 2.5H0V1.5H2.84993H3.20606L3.32247 1.83658L7.35614 13.5H18.6489L21.5375 5.5H7V4.5H22.2496H22.9618L22.7199 5.16981L19.4703 14.1698L19.3511 14.5H19H7.69371L8.36038 16.5H8.36708H8.37755H8.38816H8.3989H8.40978H8.4208H8.43194H8.44322H8.45463H8.46618H8.47785H8.48966H8.50159H8.51366H8.52585H8.53817H8.55062H8.5632H8.57591H8.58874H8.6017H8.61479H8.628H8.64133H8.65479H8.66838H8.68208H8.69591H8.70986H8.72394H8.73813H8.75244H8.76688H8.78143H8.79611H8.8109H8.82581H8.84084H8.85598H8.87124H8.88662H8.90211H8.91772H8.93345H8.94928H8.96524H8.9813H8.99748H9.01376H9.03016H9.04668H9.0633H9.08003H9.09687H9.11382H9.13088H9.14805H9.16532H9.1827H9.20019H9.21779H9.23549H9.25329H9.2712H9.28921H9.30733H9.32555H9.34387H9.3623H9.38082H9.39945H9.41817H9.437H9.45593H9.47495H9.49407H9.5133H9.53262H9.55203H9.57154H9.59115H9.61086H9.63065H9.65055H9.67053H9.69061H9.71078H9.73105H9.75141H9.77186H9.79239H9.81302H9.83374H9.85455H9.87545H9.89643H9.91751H9.93867H9.95992H9.98125H10.0027H10.0242H10.0458H10.0674H10.0892H10.111H10.133H10.155H10.1771H10.1992H10.2215H10.2438H10.2662H10.2887H10.3113H10.3339H10.3566H10.3794H10.4023H10.4253H10.4483H10.4714H10.4946H10.5178H10.5412H10.5646H10.588H10.6116H10.6352H10.6589H10.6826H10.7065H10.7304H10.7543H10.7784H10.8025H10.8266H10.8509H10.8752H10.8996H10.924H10.9485H10.9731H10.9977H11.0224H11.0471H11.072H11.0968H11.1218H11.1468H11.1718H11.197H11.2222H11.2474H11.2727H11.2981H11.3235H11.3489H11.3745H11.4001H11.4257H11.4514H11.4771H11.5029H11.5288H11.5547H11.5807H11.6067H11.6328H11.6589H11.685H11.7113H11.7375H11.7638H11.7902H11.8166H11.8431H11.8696H11.8961H11.9227H11.9494H11.9761H12.0028H12.0296H12.0564H12.0833H12.1102H12.1371H12.1641H12.1911H12.2182H12.2453H12.2725H12.2996H12.3269H12.3541H12.3814H12.4088H12.4361H12.4635H12.491H12.5185H12.546H12.5735H12.6011H12.6287H12.6564H12.684H12.7117H12.7395H12.7672H12.795H12.8229H12.8507H12.8786H12.9065H12.9345H12.9624H12.9904H13.0184H13.0465H13.0745H13.1026H13.1307H13.1589H13.187H13.2152H13.2434H13.2716H13.2999H13.3282H13.3564H13.3847H13.4131H13.4414H13.4698H13.4981H13.5265H13.5549H13.5834H13.6118H13.6402H13.6687H13.6972H13.7257H13.7542H13.7827H13.8112H13.8398H13.8683H13.8969H13.9254H13.954H13.9826H14.0112H14.0398H14.0684H14.097H14.1256H14.1543H14.1829H14.2115H14.2402H14.2688H14.2975H14.3261H14.3548H14.3834H14.4121H14.4407H14.4694H14.498H14.5267H14.5553H14.584H14.6126H14.6412H14.6699H14.6985H14.7271H14.7557H14.7844H14.813H14.8416H14.8702H14.8988H14.9273H14.9559H14.9845H15.013H15.0416H15.0701H15.0986H15.1271H15.1556H15.1841H15.2126H15.241H15.2695H15.2979H15.3263H15.3547H15.3831H15.4114H15.4398H15.4681H15.4964H15.5247H15.553H15.5812H15.6094H15.6377H15.6658H15.694H15.7221H15.7503H15.7784H15.8064H15.8345H15.8625H15.8905H15.9185H15.9464H15.9743H16.0022H16.0301H16.0579H16.0857H16.1135H16.1412H16.169H16.1966H16.2243H16.2519H16.2795H16.307H16.3346H16.3621H16.3895H16.4169H16.4443H16.4716H16.499H16.5262H16.5535H16.5807H16.6078H16.6349H16.662H16.689H16.716H16.743H16.7699H16.7968H16.8236H16.8504H16.8771H16.9038H16.9305H16.9571H16.9837H17.0102H17.0367H17.0631H17.0894H17.1158H17.1421H17.1683H17.1945H17.2206H17.2467H17.2727H17.2987H17.3246H17.3505H17.3763H17.402H17.4277H17.4534H17.479H17.5045H17.53H17.5555H17.5808H17.6061H17.6314H17.6566H17.6817H17.7068H17.7318H17.7568H17.7817H17.8065H17.8313H17.856H17.8806H17.9052H17.9297H17.9542H17.9786H18.0029H18.0271H18.0513H18.0754H18.0995H18.1235H18.1474H18.1712H18.195H18.2187H18.2423H18.2659H18.2894H18.3128H18.3362H18.3594H18.3826H18.4057H18.4288H18.4518H18.4747H18.4975H18.5202H18.5429H18.5655H18.588H18.6104H18.6327H18.655H18.6772H18.6993H18.7213H18.7433H18.7651H18.7869H18.8086H18.8302H18.8517H18.8732H18.8945H18.9158H18.937H18.9581H18.9791H19V17.5H18.9791H18.9581H18.937H18.9158H18.8945H18.8732H18.8517H18.8302H18.8086H18.7869H18.7651H18.7433H18.7213H18.6993H18.6772H18.655H18.6327H18.6104H18.588H18.5655H18.5429H18.5202H18.4975H18.4747H18.4518H18.4288H18.4057H18.3826H18.3594H18.3362H18.3128H18.2894H18.2659H18.2423H18.2187H18.195H18.1712H18.1474H18.1235H18.0995H18.0754H18.0513H18.0271H18.0029H17.9786H17.9542H17.9297H17.9052H17.8806H17.856H17.8313H17.8065H17.7817H17.7568H17.7318H17.7068H17.6817H17.6566H17.6314H17.6061H17.5808H17.5555H17.53H17.5045H17.479H17.4534H17.4277H17.402H17.3763H17.3505H17.3246H17.2987H17.2727H17.2467H17.2206H17.1945H17.1683H17.1421H17.1158H17.0894H17.0631H17.0367H17.0102H16.9837H16.9571H16.9305H16.9038H16.8771H16.8504H16.8236H16.7968H16.7699H16.743H16.716H16.689H16.662H16.6349H16.6078H16.5807H16.5535H16.5262H16.499H16.4716H16.4443H16.4169H16.3895H16.3621H16.3346H16.307H16.2795H16.2519H16.2243H16.1966H16.169H16.1412H16.1135H16.0857H16.0579H16.0301H16.0022H15.9743H15.9464H15.9185H15.8905H15.8625H15.8345H15.8064H15.7784H15.7503H15.7221H15.694H15.6658H15.6377H15.6094H15.5812H15.553H15.5247H15.4964H15.4681H15.4398H15.4114H15.3831H15.3547H15.3263H15.2979H15.2695H15.241H15.2126H15.1841H15.1556H15.1271H15.0986H15.0701H15.0416H15.013H14.9845H14.9559H14.9273H14.8988H14.8702H14.8416H14.813H14.7844H14.7557H14.7271H14.6985H14.6699H14.6412H14.6126H14.584H14.5553H14.5267H14.498H14.4694H14.4407H14.4121H14.3834H14.3548H14.3261H14.2975H14.2688H14.2402H14.2115H14.1829H14.1543H14.1256H14.097H14.0684H14.0398H14.0112H13.9826H13.954H13.9254H13.8969H13.8683H13.8398H13.8112H13.7827H13.7542H13.7257H13.6972H13.6687H13.6402H13.6118H13.5834H13.5549H13.5265H13.4981H13.4698H13.4414H13.4131H13.3847H13.3564H13.3282H13.2999H13.2716H13.2434H13.2152H13.187H13.1589H13.1307H13.1026H13.0745H13.0465H13.0184H12.9904H12.9624H12.9345H12.9065H12.8786H12.8507H12.8229H12.795H12.7672H12.7395H12.7117H12.684H12.6564H12.6287H12.6011H12.5735H12.546H12.5185H12.491H12.4635H12.4361H12.4088H12.3814H12.3541H12.3269H12.2996H12.2725H12.2453H12.2182H12.1911H12.1641H12.1371H12.1102H12.0833H12.0564H12.0296H12.0028H11.9761H11.9494H11.9227H11.8961H11.8696H11.8431H11.8166H11.7902H11.7638H11.7375H11.7113H11.685H11.6589H11.6328H11.6067H11.5807H11.5547H11.5288H11.5029H11.4771H11.4514H11.4257H11.4001H11.3745H11.3489H11.3235H11.2981H11.2727H11.2474H11.2222H11.197H11.1718H11.1468H11.1218H11.0968H11.072H11.0471H11.0224H10.9977H10.9731H10.9485H10.924H10.8996H10.8752H10.8509H10.8266H10.8025H10.7784H10.7543H10.7304H10.7065H10.6826H10.6589H10.6352H10.6116H10.588H10.5646H10.5412H10.5178H10.4946H10.4714H10.4483H10.4253H10.4023H10.3794H10.3566H10.3339H10.3113H10.2887H10.2662H10.2438H10.2215H10.1992H10.1771H10.155H10.133H10.111H10.0892H10.0674H10.0458H10.0242H10.0027H9.98125H9.95992H9.93867H9.91751H9.89643H9.87545H9.85455H9.83374H9.81302H9.79239H9.77186H9.75141H9.73105H9.71078H9.69061H9.67053H9.65055H9.63065H9.61086H9.59115H9.57154H9.55203H9.53262H9.5133H9.49407H9.47495H9.45593H9.437H9.41817H9.39945H9.38082H9.3623H9.34387H9.32555H9.30733H9.28921H9.2712H9.25329H9.23549H9.21779H9.20019H9.1827H9.16532H9.14805H9.13088H9.11382H9.09687H9.08003H9.0633H9.04668H9.03016H9.01376H8.99748H8.9813H8.96524H8.94928H8.93345H8.91772H8.90211H8.88662H8.87124H8.85598H8.84084H8.82581H8.8109H8.79611H8.78143H8.76688H8.75244H8.73813H8.72394H8.70986H8.69591H8.68208H8.66838H8.65479H8.64133H8.628H8.61479H8.6017H8.58874H8.57591H8.5632H8.55062H8.53817H8.52585H8.51366H8.50159H8.48966H8.47785H8.46618H8.45463H8.44322H8.43194H8.4208H8.40978H8.3989H8.38816H8.37755H8.36708H8.35674H8.34654H8.33647H8.32654H8.31675H8.3071H8.29759H8.28821H8.27898H8.26989H8.26093H8.25212H8.24345H8.23493H8.22654H8.2183H8.21021H8.20226H8.19445H8.18679H8.17927H8.1719H8.16468H8.15761H8.15068H8.1439H8.13727H8.13079H8.12446H8.11828H8.11226H8.10638H8.10065H8.09508H8.08966H8.0844H8.07929H8.07433H8.06953H8.06488H8.06039H8.05606H8.05188H8.04786H8.044H8.0403H8.03676H8.03337H8.03015H8.02709H8.02418H8.02144H8.01887H8.01645H8.0142H8.01211H8.01019H8.00843H8.00683H8.0054H8.00414H8.00305H8.00212H8.00136H8.00076H8.00034H8.00008L8 17V17.5H7.63962L7.52566 17.1581L6.52654 14.1608L2.49379 2.5ZM9 21C9 21.8284 8.32843 22.5 7.5 22.5C6.67157 22.5 6 21.8284 6 21C6 20.1716 6.67157 19.5 7.5 19.5C8.32843 19.5 9 20.1716 9 21ZM17.5 22.5C18.3284 22.5 19 21.8284 19 21C19 20.1716 18.3284 19.5 17.5 19.5C16.6716 19.5 16 20.1716 16 21C16 21.8284 16.6716 22.5 17.5 22.5Z"/>
    </symbol>


    <symbol id="bookmarks" viewBox="0 0 24 25">
        <path d="M3.5 3H20.5V22L12 18.5L3.5 22V3Z" stroke-linejoin="round"/>
    </symbol>

    <symbol id="plus" viewBox="0 0 25 25">
        <path d="M12 3.9519L12 21.9519"/>
        <path d="M21.5 12.4519L3.5 12.4519"/>
    </symbol>

    <symbol id="pencil" viewBox="0 0 25 25">
        <path d="M7.76303 12.3478L7.10386 17.2496L12.0057 16.5905M7.76303 12.3478L10.2379 14.1156L12.0057 16.5905M7.76303 12.3478L14.4199 5.69096L16.8948 7.45872L18.6625 9.9336L12.0057 16.5905"
              stroke-linejoin="round"/>
    </symbol>

    <symbol id="view" viewBox="0 0 33 32">
        <g>
            <circle cx="16.5" cy="15.9995" r="5" stroke="white" stroke-width="2"/>
            <path d="M2.43927 16.9343C2.14067 16.564 1.89975 16.2454 1.72024 15.9995C1.89975 15.7537 2.14067 15.435 2.43927 15.0648C3.16983 14.1588 4.23952 12.9515 5.59367 11.7466C8.3212 9.31965 12.0916 6.99951 16.5 6.99951C20.9084 6.99951 24.6788 9.31965 27.4063 11.7466C28.7605 12.9515 29.8302 14.1588 30.5607 15.0648C30.8593 15.435 31.1002 15.7537 31.2798 15.9995C31.1002 16.2454 30.8593 16.564 30.5607 16.9343C29.8302 17.8402 28.7605 19.0475 27.4063 20.2524C24.6788 22.6794 20.9084 24.9995 16.5 24.9995C12.0916 24.9995 8.3212 22.6794 5.59367 20.2524C4.23952 19.0475 3.16983 17.8402 2.43927 16.9343Z"
                  stroke="white" stroke-width="2"/>
        </g>
    </symbol>

    <symbol id="phone" viewBox="0 0 16 16">
        <path d="M2.09476 4.19211C1.97974 4.38393 1.97142 4.61951 2.05898 4.82481C2.05898 4.82481 2.2922 7.38065 5.41186 10.5003C8.53152 13.62 11.1752 13.941 11.1752 13.941C11.3805 14.0286 11.6161 14.0203 11.8079 13.9052C12.9798 13.2025 13.1222 13.0006 13.8055 11.9323C14.151 11.3921 14.0168 10.6917 13.556 10.25C12.967 9.68531 12.3166 9.10249 11.822 8.75432C11.3612 8.43005 10.7557 8.45027 10.2803 8.75157L9.34159 9.69024C9.34159 9.69024 8.30171 9.34361 7.43513 8.47704C6.56856 7.61047 6.26267 6.61132 6.26267 6.61132L7.20134 5.67265C7.50264 5.19721 7.52286 4.59167 7.19859 4.13095C6.85042 3.63628 6.31469 3.033 5.75 2.44398C5.30825 1.9832 4.60788 1.84896 4.06769 2.1945C2.99941 2.87785 2.79752 3.02018 2.09476 4.19211Z"/>
    </symbol>

    <symbol id="burger" viewBox="0 0 24 25">
        <path d="M22 4.5H2V5.5H22V4.5Z"/>
        <path d="M22 9.5H2V10.5H22V9.5Z"/>
        <path d="M22 14.5H2V15.5H22V14.5Z"/>
        <path d="M12 19.5H2V20.5H12V19.5Z"/>
    </symbol>

    <symbol id="clear" viewBox="0 0 20 20">
        <path d="M10.3536 10.3536L5.35355 15.3536L4.64645 14.6464L9.64645 9.64645L10.3536 10.3536ZM9.64645 10.3536L4.64645 5.35355L5.35355 4.64645L10.3536 9.64645L9.64645 10.3536ZM10.3536 9.64645L15.3536 14.6464L14.6464 15.3536L9.64645 10.3536L10.3536 9.64645ZM9.64645 9.64645L14.6464 4.64645L15.3536 5.35355L10.3536 10.3536L9.64645 9.64645Z"
              fill="#A81815"/>
        <path d="M10.3536 10.3536L5.35355 15.3536L4.64645 14.6464L9.64645 9.64645L10.3536 10.3536ZM9.64645 10.3536L4.64645 5.35355L5.35355 4.64645L10.3536 9.64645L9.64645 10.3536ZM10.3536 9.64645L15.3536 14.6464L14.6464 15.3536L9.64645 10.3536L10.3536 9.64645ZM9.64645 9.64645L14.6464 4.64645L15.3536 5.35355L10.3536 10.3536L9.64645 9.64645Z"
              fill="#DE2C29"/>
    </symbol>

</svg>