<svg width="18" height="23" viewBox="0 0 18 23" fill="none" xmlns="http://www.w3.org/2000/svg">
    <circle cx="9" cy="6.5" r="5.5" stroke="#272727"/>
    <mask id="path-2-inside-1_246_79371" fill="white">
        <path fill-rule="evenodd" clip-rule="evenodd" d="M17.0187 22.5C17.6461 21.6562 18 20.7003 18 19.6875C18 16.2702 13.9706 13.5 9 13.5C4.02944 13.5 0 16.2702 0 19.6875C0 20.7003 0.35391 21.6562 0.981343 22.5H17.0187Z"/>
    </mask>
    <path d="M17.0187 22.5V23.5H17.5212L17.8211 23.0967L17.0187 22.5ZM0.981343 22.5L0.178868 23.0967L0.478755 23.5H0.981343V22.5ZM17 19.6875C17 20.4569 16.7334 21.2078 16.2162 21.9033L17.8211 23.0967C18.5588 22.1046 19 20.9436 19 19.6875H17ZM9 14.5C11.3091 14.5 13.3557 15.1451 14.7974 16.1363C16.2436 17.1305 17 18.403 17 19.6875H19C19 17.5548 17.7417 15.7335 15.9305 14.4882C14.1148 13.24 11.6615 12.5 9 12.5V14.5ZM1 19.6875C1 18.403 1.75644 17.1305 3.20257 16.1363C4.64427 15.1451 6.69092 14.5 9 14.5V12.5C6.33852 12.5 3.88517 13.24 2.06951 14.4882C0.258281 15.7335 -1 17.5548 -1 19.6875H1ZM1.78382 21.9033C1.26663 21.2078 1 20.4569 1 19.6875H-1C-1 20.9436 -0.55881 22.1046 0.178868 23.0967L1.78382 21.9033ZM0.981343 23.5H17.0187V21.5H0.981343V23.5Z" fill="#272727" mask="url(#path-2-inside-1_246_79371)"/>
</svg>
